<?xml version="1.0" encoding="utf-8"?>
<!-- Generator: Adobe Illustrator 24.0.2, SVG Export Plug-In . SVG Version: 6.00 Build 0)  -->
<svg version="1.1" xmlns="http://www.w3.org/2000/svg" xmlns:xlink="http://www.w3.org/1999/xlink" x="0px" y="0px"
	 viewBox="0 0 1038 1038" style="enable-background:new 0 0 1038 1038;" xml:space="preserve">
<style type="text/css">
	.st0{fill:#195264;}
	.st1{fill:#8E8585;}
	.st2{fill:url(#SVGID_1_);stroke:#F2F2F2;stroke-width:2;stroke-miterlimit:10;}
	.st3{fill:url(#SVGID_2_);}
	.st4{fill:url(#SVGID_3_);stroke:#FFFFFF;stroke-miterlimit:10;}
	.st5{fill:url(#SVGID_4_);}
	.st6{fill:url(#SVGID_5_);stroke:#F2F2F2;stroke-width:2;stroke-miterlimit:10;}
	.st7{fill:url(#SVGID_6_);}
	.st8{fill:url(#SVGID_7_);stroke:#F2F2F2;stroke-width:2;stroke-miterlimit:10;}
	.st9{fill:url(#SVGID_8_);}
	.st10{fill:#F2F2F2;stroke:#00869F;stroke-miterlimit:10;}
	.st11{fill:#1C6075;}
	.st12{filter:url(#AI_SombrasDeInglete_1);}
	.st13{fill:url(#SVGID_9_);}
	.st14{fill:url(#SVGID_10_);}
	.st15{fill:url(#SVGID_11_);}
	.st16{fill:url(#SVGID_12_);stroke:#F2F2F2;stroke-width:2;stroke-miterlimit:10;}
	.st17{fill:url(#SVGID_13_);}
	.st18{fill:url(#SVGID_14_);}
	.st19{fill:url(#SVGID_15_);}
	.st20{fill:url(#SVGID_16_);stroke:#F2F2F2;stroke-width:2;stroke-miterlimit:10;}
	.st21{fill:url(#SVGID_17_);}
	.st22{fill:url(#SVGID_18_);stroke:#F2F2F2;stroke-width:2;stroke-miterlimit:10;}
	.st23{fill:url(#SVGID_19_);}
	.st24{fill:#FFFFFF;}
	.st25{fill:url(#SVGID_20_);}
	.st26{fill:url(#SVGID_21_);}
	.st27{fill:url(#SVGID_22_);}
	.st28{fill:url(#SVGID_23_);stroke:#F2F2F2;stroke-width:2;stroke-miterlimit:10;}
	.st29{fill:url(#SVGID_24_);}
	.st30{fill:url(#SVGID_25_);stroke:#FFFFFF;stroke-miterlimit:10;}
	.st31{fill:url(#SVGID_26_);}
	.st32{fill:url(#SVGID_27_);stroke:#F2F2F2;stroke-width:2;stroke-miterlimit:10;}
	.st33{fill:url(#SVGID_28_);}
	.st34{fill:url(#SVGID_29_);stroke:#F2F2F2;stroke-width:2;stroke-miterlimit:10;}
	.st35{fill:url(#SVGID_30_);}
	.st36{fill:url(#SVGID_31_);}
	.st37{fill:url(#SVGID_32_);}
	.st38{fill:url(#SVGID_33_);}
	.st39{fill:none;stroke:#662D91;stroke-width:2;stroke-miterlimit:10;}
	.st40{fill:none;stroke:#0071BC;stroke-width:2;stroke-miterlimit:10;}
	.st41{fill:#03456E;}
	.st42{font-family:'Cambria';}
	.st43{font-size:60.223px;}
	.st44{font-size:62.6319px;}
	.st45{fill:none;stroke:#FFFFFF;stroke-width:2;stroke-miterlimit:10;}
	.st46{fill:none;stroke:#1C6075;stroke-width:2;stroke-miterlimit:10;}
	.st47{fill:#195264;stroke:#195264;stroke-width:4;stroke-linecap:round;stroke-linejoin:round;stroke-miterlimit:10;}
</style>
<filter  height="140%" id="AI_SombrasDeInglete_1" width="140%" x="-20%" y="-20%">
	<feGaussianBlur  in="SourceAlpha" result="blur" stdDeviation="4"></feGaussianBlur>
	<feOffset  dx="4" dy="4" in="blur" result="offsetBlur"></feOffset>
	
		<feSpecularLighting  in="blur" result="specOut" specularConstant="1" specularExponent="10" style="lighting-color:white" surfaceScale="5">
		<fePointLight  x="-5000" y="-10000" z="-20000"></fePointLight>
	</feSpecularLighting>
	<feComposite  in="specOut" in2="SourceAlpha" operator="in" result="specOut"></feComposite>
	<feComposite  in="SourceGraphic" in2="specOut" k1="0" k2="1" k3="1" k4="0" operator="arithmetic" result="litPaint">
		</feComposite>
	<feMerge>
		<feMergeNode  in="offsetBlur"></feMergeNode>
		<feMergeNode  in="litPaint"></feMergeNode>
	</feMerge>
</filter>
<g id="fondo_1">
</g>
<g id="fondo_2">
	<rect x="-29" y="1959" class="st0" width="1093" height="1093"/>
</g>
<g id="fondo_3">
</g>
<g id="fondo_4">
	<rect x="-1135" y="1054" class="st1" width="1080" height="867"/>
</g>
<g id="fondo_5">
</g>
<g id="_x31_er_columna">
	<linearGradient id="SVGID_1_" gradientUnits="userSpaceOnUse" x1="-882" y1="1192.9445" x2="-798.9135" y2="1192.9445">
		<stop  offset="0" style="stop-color:#FF7BAC"/>
		<stop  offset="0.1643" style="stop-color:#E25694;stop-opacity:0.9122"/>
		<stop  offset="0.5615" style="stop-color:#9E005D;stop-opacity:0.7"/>
		<stop  offset="0.785" style="stop-color:#7F1979;stop-opacity:0.802"/>
		<stop  offset="1" style="stop-color:#662D91;stop-opacity:0.9"/>
	</linearGradient>
	<path class="st2" d="M-874,1098h68c0,0,8,6,7,9s0,174,0,174s-1,4-7,6s-68,0-68,0s-8-1-8-11s0-170,0-170S-878,1098-874,1098z"/>
	<linearGradient id="SVGID_2_" gradientUnits="userSpaceOnUse" x1="-880.8889" y1="1143.4445" x2="-801" y2="1143.4445">
		<stop  offset="0" style="stop-color:#CCCCCC"/>
		<stop  offset="0.2039" style="stop-color:#CDCDCD"/>
		<stop  offset="0.2826" style="stop-color:#D6D6D6"/>
		<stop  offset="0.4773" style="stop-color:#E6E6E6"/>
		<stop  offset="0.6983" style="stop-color:#EFEFEF"/>
		<stop  offset="1" style="stop-color:#F2F2F2"/>
	</linearGradient>
	<path class="st3" d="M-867.8,1098h50.04c0,0,2.76,0,3.76,2s-1,3-1,3h-52C-871,1102-867.8,1098-867.8,1098z M-849,1128h16
		c0,0,2-2,0-5h-16C-849,1123-853,1125-849,1128z M-844,1136v52c2,2,5,0,5,0v-52C-841,1132-844,1136-844,1136z M-855,1136v52
		c2,2,5,0,5,0v-28.54V1136C-852,1132-855,1136-855,1136z M-833,1135v52c2,2,5,0,5,0v-28.54V1135C-830,1131-833,1135-833,1135z
		 M-823,1148v34c0,0,2,6,5,0v-34C-818,1148-820,1144-823,1148z M-865,1148v34c0,0,2,6,5,0v-34C-860,1148-862,1144-865,1148z
		 M-871,1115h60c0,0,5,3,5,9c0,0,1,5-3,11c0,0-1,2-10,1c0,0-6-6-4-12c0,0-3-5-5,0c-1.18,0.72-0.2,10.73,4,14c0,0,4,5,9,5s11-6,11-6
		s3-6,3-14c0,0,0-8-6-13c0,0-2-2-4-2s-60,0-60,0s-10,3-9,12c0,0-2,8,0,15c0,0,3,7,9,8s10-3,10-3s5-3,6-9v-7c0,0-2-3-4,0c0,0-1,4-2,8
		c0,0,0,4-6,4s-9-3-9-3s-4.19-8.76,0-14C-872,1114-871,1115-871,1115z"/>
	<linearGradient id="SVGID_3_" gradientUnits="userSpaceOnUse" x1="126" y1="517.3568" x2="226.0744" y2="517.3568">
		<stop  offset="0.0894" style="stop-color:#29ABE2"/>
		<stop  offset="0.4829" style="stop-color:#1879A9"/>
		<stop  offset="0.8219" style="stop-color:#0B537E"/>
		<stop  offset="0.9944" style="stop-color:#06456E"/>
	</linearGradient>
	<path class="st4" d="M135.64,403h81.9c0,0,9.64,7.23,8.43,10.84c-1.2,3.61,0,209.58,0,209.58s-1.2,4.82-8.43,7.23
		c-7.23,2.41-81.9,0-81.9,0s-9.64-1.2-9.64-13.25s0-204.76,0-204.76S130.82,403,135.64,403z"/>
	<linearGradient id="SVGID_4_" gradientUnits="userSpaceOnUse" x1="127.3383" y1="457.736" x2="223.5613" y2="457.736">
		<stop  offset="0" style="stop-color:#CCCCCC"/>
		<stop  offset="0.2039" style="stop-color:#CDCDCD"/>
		<stop  offset="0.2826" style="stop-color:#D6D6D6"/>
		<stop  offset="0.4773" style="stop-color:#E6E6E6"/>
		<stop  offset="0.6983" style="stop-color:#EFEFEF"/>
		<stop  offset="1" style="stop-color:#F2F2F2"/>
	</linearGradient>
	<path class="st5" d="M143.1,403h60.27c0,0,3.32,0,4.53,2.41c1.2,2.41-1.2,3.61-1.2,3.61h-62.63C139.25,407.82,143.1,403,143.1,403z
		 M165.75,439.13h19.27c0,0,2.41-2.41,0-6.02h-19.27C165.75,433.11,160.93,435.52,165.75,439.13z M171.77,448.77v62.63
		c2.41,2.41,6.02,0,6.02,0v-62.63C175.38,443.95,171.77,448.77,171.77,448.77z M158.52,448.77v62.63c2.41,2.41,6.02,0,6.02,0v-34.38
		v-28.26C162.13,443.95,158.52,448.77,158.52,448.77z M185.02,447.57v62.63c2.41,2.41,6.02,0,6.02,0v-34.38v-28.26
		C188.63,442.75,185.02,447.57,185.02,447.57z M197.06,463.22v40.95c0,0,2.41,7.23,6.02,0v-40.95
		C203.09,463.22,200.68,458.41,197.06,463.22z M146.48,463.22v40.95c0,0,2.41,7.23,6.02,0v-40.95
		C152.5,463.22,150.09,458.41,146.48,463.22z M139.25,423.48h72.27c0,0,6.02,3.61,6.02,10.84c0,0,1.2,6.02-3.61,13.25
		c0,0-1.2,2.41-12.04,1.2c0,0-7.23-7.23-4.82-14.45c0,0-3.61-6.02-6.02,0c-1.42,0.86-0.24,12.92,4.82,16.86
		c0,0,4.82,6.02,10.84,6.02c6.02,0,13.25-7.23,13.25-7.23s3.61-7.23,3.61-16.86c0,0,0-9.64-7.23-15.66c0,0-2.41-2.41-4.82-2.41
		s-72.27,0-72.27,0s-12.04,3.61-10.84,14.45c0,0-2.41,9.64,0,18.07c0,0,3.61,8.43,10.84,9.64s12.04-3.61,12.04-3.61
		s6.02-3.61,7.23-10.84v-8.43c0,0-2.41-3.61-4.82,0c0,0-1.2,4.82-2.41,9.64c0,0,0,4.82-7.23,4.82s-10.84-3.61-10.84-3.61
		s-5.05-10.55,0-16.86C138.04,422.27,139.25,423.48,139.25,423.48z"/>
	<linearGradient id="SVGID_5_" gradientUnits="userSpaceOnUse" x1="-722" y1="1445.9445" x2="-638.9135" y2="1445.9445">
		<stop  offset="0" style="stop-color:#FF7BAC"/>
		<stop  offset="0.1643" style="stop-color:#E25694;stop-opacity:0.9122"/>
		<stop  offset="0.5615" style="stop-color:#9E005D;stop-opacity:0.7"/>
		<stop  offset="0.785" style="stop-color:#7F1979;stop-opacity:0.802"/>
		<stop  offset="1" style="stop-color:#662D91;stop-opacity:0.9"/>
	</linearGradient>
	<path class="st6" d="M-714,1351h68c0,0,8,6,7,9s0,174,0,174s-1,4-7,6s-68,0-68,0s-8-1-8-11s0-170,0-170S-718,1351-714,1351z"/>
	<linearGradient id="SVGID_6_" gradientUnits="userSpaceOnUse" x1="-720.8889" y1="1396.4445" x2="-641" y2="1396.4445">
		<stop  offset="0" style="stop-color:#CCCCCC"/>
		<stop  offset="0.2039" style="stop-color:#CDCDCD"/>
		<stop  offset="0.2826" style="stop-color:#D6D6D6"/>
		<stop  offset="0.4773" style="stop-color:#E6E6E6"/>
		<stop  offset="0.6983" style="stop-color:#EFEFEF"/>
		<stop  offset="1" style="stop-color:#F2F2F2"/>
	</linearGradient>
	<path class="st7" d="M-707.8,1351h50.04c0,0,2.76,0,3.76,2s-1,3-1,3h-52C-711,1355-707.8,1351-707.8,1351z M-689,1381h16
		c0,0,2-2,0-5h-16C-689,1376-693,1378-689,1381z M-684,1389v52c2,2,5,0,5,0v-52C-681,1385-684,1389-684,1389z M-695,1389v52
		c2,2,5,0,5,0v-28.54V1389C-692,1385-695,1389-695,1389z M-673,1388v52c2,2,5,0,5,0v-28.54V1388C-670,1384-673,1388-673,1388z
		 M-663,1401v34c0,0,2,6,5,0v-34C-658,1401-660,1397-663,1401z M-705,1401v34c0,0,2,6,5,0v-34C-700,1401-702,1397-705,1401z
		 M-711,1368h60c0,0,5,3,5,9c0,0,1,5-3,11c0,0-1,2-10,1c0,0-6-6-4-12c0,0-3-5-5,0c-1.18,0.72-0.2,10.73,4,14c0,0,4,5,9,5s11-6,11-6
		s3-6,3-14c0,0,0-8-6-13c0,0-2-2-4-2s-60,0-60,0s-10,3-9,12c0,0-2,8,0,15c0,0,3,7,9,8s10-3,10-3s5-3,6-9v-7c0,0-2-3-4,0c0,0-1,4-2,8
		c0,0,0,4-6,4s-9-3-9-3s-4.19-8.76,0-14C-712,1367-711,1368-711,1368z"/>
	<linearGradient id="SVGID_7_" gradientUnits="userSpaceOnUse" x1="-654" y1="1687.1831" x2="-601.3334" y2="1687.1831">
		<stop  offset="0" style="stop-color:#FF7BAC"/>
		<stop  offset="0.1643" style="stop-color:#E25694;stop-opacity:0.9122"/>
		<stop  offset="0.5615" style="stop-color:#9E005D;stop-opacity:0.7"/>
		<stop  offset="0.785" style="stop-color:#7F1979;stop-opacity:0.802"/>
		<stop  offset="1" style="stop-color:#662D91;stop-opacity:0.9"/>
	</linearGradient>
	<path class="st8" d="M-648.93,1627h43.1c0,0,5.07,3.8,4.44,5.7c-0.63,1.9,0,110.29,0,110.29s-0.63,2.54-4.44,3.8
		c-3.8,1.27-43.1,0-43.1,0s-5.07-0.63-5.07-6.97c0-6.34,0-107.76,0-107.76S-651.46,1627-648.93,1627z"/>
	<linearGradient id="SVGID_8_" gradientUnits="userSpaceOnUse" x1="-653.2957" y1="1655.8062" x2="-602.656" y2="1655.8062">
		<stop  offset="0" style="stop-color:#CCCCCC"/>
		<stop  offset="0.2039" style="stop-color:#CDCDCD"/>
		<stop  offset="0.2826" style="stop-color:#D6D6D6"/>
		<stop  offset="0.4773" style="stop-color:#E6E6E6"/>
		<stop  offset="0.6983" style="stop-color:#EFEFEF"/>
		<stop  offset="1" style="stop-color:#F2F2F2"/>
	</linearGradient>
	<path class="st9" d="M-645,1627h31.72c0,0,1.75,0,2.38,1.27c0.63,1.27-0.63,1.9-0.63,1.9h-32.96C-647.03,1629.54-645,1627-645,1627
		z M-633.08,1646.02h10.14c0,0,1.27-1.27,0-3.17h-10.14C-633.08,1642.85-635.62,1644.11-633.08,1646.02z M-629.91,1651.09v32.96
		c1.27,1.27,3.17,0,3.17,0v-32.96C-628.01,1648.55-629.91,1651.09-629.91,1651.09z M-636.89,1651.09v32.96c1.27,1.27,3.17,0,3.17,0
		v-18.09v-14.87C-634.98,1648.55-636.89,1651.09-636.89,1651.09z M-622.94,1650.45v32.96c1.27,1.27,3.17,0,3.17,0v-18.09v-14.87
		C-621.04,1647.92-622.94,1650.45-622.94,1650.45z M-616.6,1658.69v21.55c0,0,1.27,3.8,3.17,0v-21.55
		C-613.43,1658.69-614.7,1656.16-616.6,1658.69z M-643.22,1658.69v21.55c0,0,1.27,3.8,3.17,0v-21.55
		C-640.05,1658.69-641.32,1656.16-643.22,1658.69z M-647.03,1637.78h38.03c0,0,3.17,1.9,3.17,5.7c0,0,0.63,3.17-1.9,6.97
		c0,0-0.63,1.27-6.34,0.63c0,0-3.8-3.8-2.54-7.61c0,0-1.9-3.17-3.17,0c-0.75,0.46-0.13,6.8,2.54,8.87c0,0,2.54,3.17,5.7,3.17
		s6.97-3.8,6.97-3.8s1.9-3.8,1.9-8.87c0,0,0-5.07-3.8-8.24c0,0-1.27-1.27-2.54-1.27s-38.03,0-38.03,0s-6.34,1.9-5.7,7.61
		c0,0-1.27,5.07,0,9.51c0,0,1.9,4.44,5.7,5.07c3.8,0.63,6.34-1.9,6.34-1.9s3.17-1.9,3.8-5.7v-4.44c0,0-1.27-1.9-2.54,0
		c0,0-0.63,2.54-1.27,5.07c0,0,0,2.54-3.8,2.54c-3.8,0-5.7-1.9-5.7-1.9s-2.66-5.55,0-8.87
		C-647.66,1637.14-647.03,1637.78-647.03,1637.78z"/>
	<path class="st10" d="M220,2050h68c0,0,8,6,7,9s0,174,0,174s-1,4-7,6s-68,0-68,0s-8-1-8-11s0-170,0-170S216,2050,220,2050z"/>
	<path class="st0" d="M226.2,2050h50.04c0,0,2.76,0,3.76,2s-1,3-1,3h-52C223,2054,226.2,2050,226.2,2050z M245,2080h16c0,0,2-2,0-5
		h-16C245,2075,241,2077,245,2080z M250,2088v52c2,2,5,0,5,0v-52C253,2084,250,2088,250,2088z M239,2088v52c2,2,5,0,5,0v-28.54V2088
		C242,2084,239,2088,239,2088z M261,2087v52c2,2,5,0,5,0v-28.54V2087C264,2083,261,2087,261,2087z M271,2100v34c0,0,2,6,5,0v-34
		C276,2100,274,2096,271,2100z M229,2100v34c0,0,2,6,5,0v-34C234,2100,232,2096,229,2100z M223,2067h60c0,0,5,3,5,9c0,0,1,5-3,11
		c0,0-1,2-10,1c0,0-6-6-4-12c0,0-3-5-5,0c-1.18,0.72-0.2,10.73,4,14c0,0,4,5,9,5s11-6,11-6s3-6,3-14c0,0,0-8-6-13c0,0-2-2-4-2
		s-60,0-60,0s-10,3-9,12c0,0-2,8,0,15c0,0,3,7,9,8s10-3,10-3s5-3,6-9v-7c0,0-2-3-4,0c0,0-1,4-2,8c0,0,0,4-6,4s-9-3-9-3
		s-4.19-8.76,0-14C222,2066,223,2067,223,2067z"/>
	<path class="st10" d="M434.04,2599.68h42.82c0,0,5.04,3.78,4.41,5.67c-0.63,1.89,0,109.57,0,109.57s-0.63,2.52-4.41,3.78
		c-3.78,1.26-42.82,0-42.82,0s-5.04-0.63-5.04-6.93s0-107.06,0-107.06S431.52,2599.68,434.04,2599.68z"/>
	<path class="st0" d="M437.94,2599.68h31.51c0,0,1.74,0,2.37,1.26s-0.63,1.89-0.63,1.89h-32.75
		C435.93,2602.2,437.94,2599.68,437.94,2599.68z M449.78,2618.57h10.08c0,0,1.26-1.26,0-3.15h-10.08
		C449.78,2615.42,447.26,2616.68,449.78,2618.57z M452.93,2623.61v32.75c1.26,1.26,3.15,0,3.15,0v-32.75
		C454.82,2621.09,452.93,2623.61,452.93,2623.61z M446,2623.61v32.75c1.26,1.26,3.15,0,3.15,0v-17.97v-14.77
		C447.89,2621.09,446,2623.61,446,2623.61z M459.86,2622.98v32.75c1.26,1.26,3.15,0,3.15,0v-17.97v-14.77
		C461.75,2620.46,459.86,2622.98,459.86,2622.98z M466.15,2631.17v21.41c0,0,1.26,3.78,3.15,0v-21.41
		C469.3,2631.17,468.04,2628.65,466.15,2631.17z M439.71,2631.17v21.41c0,0,1.26,3.78,3.15,0v-21.41
		C442.85,2631.17,441.59,2628.65,439.71,2631.17z M435.93,2610.38h37.78c0,0,3.15,1.89,3.15,5.67c0,0,0.63,3.15-1.89,6.93
		c0,0-0.63,1.26-6.3,0.63c0,0-3.78-3.78-2.52-7.56c0,0-1.89-3.15-3.15,0c-0.74,0.45-0.12,6.76,2.52,8.82c0,0,2.52,3.15,5.67,3.15
		s6.93-3.78,6.93-3.78s1.89-3.78,1.89-8.82c0,0,0-5.04-3.78-8.19c0,0-1.26-1.26-2.52-1.26c-1.26,0-37.78,0-37.78,0
		s-6.3,1.89-5.67,7.56c0,0-1.26,5.04,0,9.45c0,0,1.89,4.41,5.67,5.04c3.78,0.63,6.3-1.89,6.3-1.89s3.15-1.89,3.78-5.67v-4.41
		c0,0-1.26-1.89-2.52,0c0,0-0.63,2.52-1.26,5.04c0,0,0,2.52-3.78,2.52c-3.78,0-5.67-1.89-5.67-1.89s-2.64-5.52,0-8.82
		C435.3,2609.75,435.93,2610.38,435.93,2610.38z"/>
	<path class="st10" d="M366,2297h68c0,0,8,6,7,9s0,174,0,174s-1,4-7,6s-68,0-68,0s-8-1-8-11s0-170,0-170S362,2297,366,2297z"/>
	<path class="st0" d="M372.2,2297h50.04c0,0,2.76,0,3.76,2s-1,3-1,3h-52C369,2301,372.2,2297,372.2,2297z M391,2327h16c0,0,2-2,0-5
		h-16C391,2322,387,2324,391,2327z M396,2335v52c2,2,5,0,5,0v-52C399,2331,396,2335,396,2335z M385,2335v52c2,2,5,0,5,0v-28.54V2335
		C388,2331,385,2335,385,2335z M407,2334v52c2,2,5,0,5,0v-28.54V2334C410,2330,407,2334,407,2334z M417,2347v34c0,0,2,6,5,0v-34
		C422,2347,420,2343,417,2347z M375,2347v34c0,0,2,6,5,0v-34C380,2347,378,2343,375,2347z M369,2314h60c0,0,5,3,5,9c0,0,1,5-3,11
		c0,0-1,2-10,1c0,0-6-6-4-12c0,0-3-5-5,0c-1.18,0.72-0.2,10.73,4,14c0,0,4,5,9,5s11-6,11-6s3-6,3-14c0,0,0-8-6-13c0,0-2-2-4-2
		s-60,0-60,0s-10,3-9,12c0,0-2,8,0,15c0,0,3,7,9,8s10-3,10-3s5-3,6-9v-7c0,0-2-3-4,0c0,0-1,4-2,8c0,0,0,4-6,4s-9-3-9-3
		s-4.19-8.76,0-14C368,2313,369,2314,369,2314z"/>
	<path class="st11" d="M-748,2343h68c0,0,8,6,7,9s0,174,0,174s-1,4-7,6s-68,0-68,0s-8-1-8-11s0-170,0-170S-752,2343-748,2343z"/>
	<path class="st0" d="M-741.8,2343h50.04c0,0,2.76,0,3.76,2s-1,3-1,3h-52C-745,2347-741.8,2343-741.8,2343z M-723,2373h16
		c0,0,2-2,0-5h-16C-723,2368-727,2370-723,2373z M-718,2381v52c2,2,5,0,5,0v-52C-715,2377-718,2381-718,2381z M-729,2381v52
		c2,2,5,0,5,0v-28.54V2381C-726,2377-729,2381-729,2381z M-707,2380v52c2,2,5,0,5,0v-28.54V2380C-704,2376-707,2380-707,2380z
		 M-697,2393v34c0,0,2,6,5,0v-34C-692,2393-694,2389-697,2393z M-739,2393v34c0,0,2,6,5,0v-34C-734,2393-736,2389-739,2393z
		 M-745,2360h60c0,0,5,3,5,9c0,0,1,5-3,11c0,0-1,2-10,1c0,0-6-6-4-12c0,0-3-5-5,0c-1.18,0.72-0.2,10.73,4,14c0,0,4,5,9,5s11-6,11-6
		s3-6,3-14c0,0,0-8-6-13c0,0-2-2-4-2s-60,0-60,0s-10,3-9,12c0,0-2,8,0,15c0,0,3,7,9,8s10-3,10-3s5-3,6-9v-7c0,0-2-3-4,0c0,0-1,4-2,8
		c0,0,0,4-6,4s-9-3-9-3s-4.19-8.76,0-14C-746,2359-745,2360-745,2360z"/>
	<path class="st11" d="M-956,2051h68c0,0,8,6,7,9s0,174,0,174s-1,4-7,6s-68,0-68,0s-8-1-8-11s0-170,0-170S-960,2051-956,2051z"/>
	<path class="st0" d="M-949.8,2051h50.04c0,0,2.76,0,3.76,2s-1,3-1,3h-52C-953,2055-949.8,2051-949.8,2051z M-931,2081h16
		c0,0,2-2,0-5h-16C-931,2076-935,2078-931,2081z M-926,2089v52c2,2,5,0,5,0v-52C-923,2085-926,2089-926,2089z M-937,2089v52
		c2,2,5,0,5,0v-28.54V2089C-934,2085-937,2089-937,2089z M-915,2088v52c2,2,5,0,5,0v-28.54V2088C-912,2084-915,2088-915,2088z
		 M-905,2101v34c0,0,2,6,5,0v-34C-900,2101-902,2097-905,2101z M-947,2101v34c0,0,2,6,5,0v-34C-942,2101-944,2097-947,2101z
		 M-953,2068h60c0,0,5,3,5,9c0,0,1,5-3,11c0,0-1,2-10,1c0,0-6-6-4-12c0,0-3-5-5,0c-1.18,0.72-0.2,10.73,4,14c0,0,4,5,9,5s11-6,11-6
		s3-6,3-14c0,0,0-8-6-13c0,0-2-2-4-2s-60,0-60,0s-10,3-9,12c0,0-2,8,0,15c0,0,3,7,9,8s10-3,10-3s5-3,6-9v-7c0,0-2-3-4,0c0,0-1,4-2,8
		c0,0,0,4-6,4s-9-3-9-3s-4.19-8.76,0-14C-954,2067-953,2068-953,2068z"/>
	<g class="st12">
		<linearGradient id="SVGID_9_" gradientUnits="userSpaceOnUse" x1="274" y1="1184.9445" x2="357.0865" y2="1184.9445">
			<stop  offset="0" style="stop-color:#1C6075"/>
			<stop  offset="1" style="stop-color:#4D4D4D"/>
		</linearGradient>
		<path class="st13" d="M282,1090h68c0,0,8,6,7,9s0,174,0,174s-1,4-7,6s-68,0-68,0s-8-1-8-11s0-170,0-170S278,1090,282,1090z"/>
	</g>
	<path class="st0" d="M288.2,1090h50.04c0,0,2.76,0,3.76,2s-1,3-1,3h-52C285,1094,288.2,1090,288.2,1090z M307,1120h16c0,0,2-2,0-5
		h-16C307,1115,303,1117,307,1120z M312,1128v52c2,2,5,0,5,0v-52C315,1124,312,1128,312,1128z M301,1128v52c2,2,5,0,5,0v-28.54V1128
		C304,1124,301,1128,301,1128z M323,1127v52c2,2,5,0,5,0v-28.54V1127C326,1123,323,1127,323,1127z M333,1140v34c0,0,2,6,5,0v-34
		C338,1140,336,1136,333,1140z M291,1140v34c0,0,2,6,5,0v-34C296,1140,294,1136,291,1140z M285,1107h60c0,0,5,3,5,9c0,0,1,5-3,11
		c0,0-1,2-10,1c0,0-6-6-4-12c0,0-3-5-5,0c-1.18,0.72-0.2,10.73,4,14c0,0,4,5,9,5s11-6,11-6s3-6,3-14c0,0,0-8-6-13c0,0-2-2-4-2
		s-60,0-60,0s-10,3-9,12c0,0-2,8,0,15c0,0,3,7,9,8s10-3,10-3s5-3,6-9v-7c0,0-2-3-4,0c0,0-1,4-2,8c0,0,0,4-6,4s-9-3-9-3
		s-4.19-8.76,0-14C284,1106,285,1107,285,1107z"/>
	<g class="st12">
		<linearGradient id="SVGID_10_" gradientUnits="userSpaceOnUse" x1="417" y1="1475.9445" x2="500.0865" y2="1475.9445">
			<stop  offset="0" style="stop-color:#1C6075"/>
			<stop  offset="1" style="stop-color:#4D4D4D"/>
		</linearGradient>
		<path class="st14" d="M425,1381h68c0,0,8,6,7,9s0,174,0,174s-1,4-7,6s-68,0-68,0s-8-1-8-11s0-170,0-170S421,1381,425,1381z"/>
	</g>
	<path class="st0" d="M431.2,1381h50.04c0,0,2.76,0,3.76,2s-1,3-1,3h-52C428,1385,431.2,1381,431.2,1381z M450,1411h16c0,0,2-2,0-5
		h-16C450,1406,446,1408,450,1411z M455,1419v52c2,2,5,0,5,0v-52C458,1415,455,1419,455,1419z M444,1419v52c2,2,5,0,5,0v-28.54V1419
		C447,1415,444,1419,444,1419z M466,1418v52c2,2,5,0,5,0v-28.54V1418C469,1414,466,1418,466,1418z M476,1431v34c0,0,2,6,5,0v-34
		C481,1431,479,1427,476,1431z M434,1431v34c0,0,2,6,5,0v-34C439,1431,437,1427,434,1431z M428,1398h60c0,0,5,3,5,9c0,0,1,5-3,11
		c0,0-1,2-10,1c0,0-6-6-4-12c0,0-3-5-5,0c-1.18,0.72-0.2,10.73,4,14c0,0,4,5,9,5s11-6,11-6s3-6,3-14c0,0,0-8-6-13c0,0-2-2-4-2
		s-60,0-60,0s-10,3-9,12c0,0-2,8,0,15c0,0,3,7,9,8s10-3,10-3s5-3,6-9v-7c0,0-2-3-4,0c0,0-1,4-2,8c0,0,0,4-6,4s-9-3-9-3
		s-4.19-8.76,0-14C427,1397,428,1398,428,1398z"/>
	<g class="st12">
		<linearGradient id="SVGID_11_" gradientUnits="userSpaceOnUse" x1="500" y1="1755.9027" x2="541.0449" y2="1755.9027">
			<stop  offset="0" style="stop-color:#1C6075"/>
			<stop  offset="1" style="stop-color:#4D4D4D"/>
		</linearGradient>
		<path class="st15" d="M503.95,1709h33.59c0,0,3.95,2.96,3.46,4.45c-0.49,1.48,0,85.96,0,85.96s-0.49,1.98-3.46,2.96
			c-2.96,0.99-33.59,0-33.59,0s-3.95-0.49-3.95-5.43s0-83.98,0-83.98S501.98,1709,503.95,1709z"/>
	</g>
	<path class="st0" d="M507.01,1709h24.72c0,0,1.36,0,1.86,0.99c0.49,0.99-0.49,1.48-0.49,1.48h-25.69
		C505.43,1710.98,507.01,1709,507.01,1709z M516.3,1723.82h7.9c0,0,0.99-0.99,0-2.47h-7.9
		C516.3,1721.35,514.33,1722.34,516.3,1723.82z M518.77,1727.77v25.69c0.99,0.99,2.47,0,2.47,0v-25.69
		C520.25,1725.8,518.77,1727.77,518.77,1727.77z M513.34,1727.77v25.69c0.99,0.99,2.47,0,2.47,0v-14.1v-11.59
		C514.82,1725.8,513.34,1727.77,513.34,1727.77z M524.21,1727.28v25.69c0.99,0.99,2.47,0,2.47,0v-14.1v-11.59
		C525.69,1725.3,524.21,1727.28,524.21,1727.28z M529.15,1733.7v16.8c0,0,0.99,2.96,2.47,0v-16.8
		C531.62,1733.7,530.63,1731.72,529.15,1733.7z M508.4,1733.7v16.8c0,0,0.99,2.96,2.47,0v-16.8
		C510.87,1733.7,509.88,1731.72,508.4,1733.7z M505.43,1717.4h29.64c0,0,2.47,1.48,2.47,4.45c0,0,0.49,2.47-1.48,5.43
		c0,0-0.49,0.99-4.94,0.49c0,0-2.96-2.96-1.98-5.93c0,0-1.48-2.47-2.47,0c-0.58,0.35-0.1,5.3,1.98,6.92c0,0,1.98,2.47,4.45,2.47
		c2.47,0,5.43-2.96,5.43-2.96s1.48-2.96,1.48-6.92c0,0,0-3.95-2.96-6.42c0,0-0.99-0.99-1.98-0.99c-0.99,0-29.64,0-29.64,0
		s-4.94,1.48-4.45,5.93c0,0-0.99,3.95,0,7.41c0,0,1.48,3.46,4.45,3.95c2.96,0.49,4.94-1.48,4.94-1.48s2.47-1.48,2.96-4.45v-3.46
		c0,0-0.99-1.48-1.98,0c0,0-0.49,1.98-0.99,3.95c0,0,0,1.98-2.96,1.98c-2.96,0-4.45-1.48-4.45-1.48s-2.07-4.33,0-6.92
		C504.94,1716.9,505.43,1717.4,505.43,1717.4z"/>
	<path class="st11" d="M-688.88,2636h43.49c0,0,5.12,3.84,4.48,5.76c-0.64,1.92,0,111.28,0,111.28s-0.64,2.56-4.48,3.84
		c-3.84,1.28-43.49,0-43.49,0s-5.12-0.64-5.12-7.03s0-108.72,0-108.72S-691.44,2636-688.88,2636z"/>
	<path class="st0" d="M-684.92,2636h32c0,0,1.77,0,2.4,1.28s-0.64,1.92-0.64,1.92h-33.26C-686.97,2638.56-684.92,2636-684.92,2636z
		 M-672.9,2655.19h10.23c0,0,1.28-1.28,0-3.2h-10.23C-672.9,2651.99-675.45,2653.27-672.9,2655.19z M-669.7,2660.3v33.26
		c1.28,1.28,3.2,0,3.2,0v-33.26C-667.78,2657.74-669.7,2660.3-669.7,2660.3z M-676.73,2660.3v33.26c1.28,1.28,3.2,0,3.2,0v-18.25
		v-15C-674.81,2657.74-676.73,2660.3-676.73,2660.3z M-662.66,2659.66v33.26c1.28,1.28,3.2,0,3.2,0v-18.25v-15
		C-660.74,2657.1-662.66,2659.66-662.66,2659.66z M-656.27,2667.98v21.74c0,0,1.28,3.84,3.2,0v-21.74
		C-653.07,2667.98-654.35,2665.42-656.27,2667.98z M-683.13,2667.98v21.74c0,0,1.28,3.84,3.2,0v-21.74
		C-679.93,2667.98-681.21,2665.42-683.13,2667.98z M-686.97,2646.87h38.37c0,0,3.2,1.92,3.2,5.76c0,0,0.64,3.2-1.92,7.03
		c0,0-0.64,1.28-6.4,0.64c0,0-3.84-3.84-2.56-7.67c0,0-1.92-3.2-3.2,0c-0.75,0.46-0.13,6.86,2.56,8.95c0,0,2.56,3.2,5.76,3.2
		c3.2,0,7.03-3.84,7.03-3.84s1.92-3.84,1.92-8.95c0,0,0-5.12-3.84-8.31c0,0-1.28-1.28-2.56-1.28s-38.37,0-38.37,0
		s-6.4,1.92-5.76,7.67c0,0-1.28,5.12,0,9.59c0,0,1.92,4.48,5.76,5.12c3.84,0.64,6.4-1.92,6.4-1.92s3.2-1.92,3.84-5.76v-4.48
		c0,0-1.28-1.92-2.56,0c0,0-0.64,2.56-1.28,5.12c0,0,0,2.56-3.84,2.56c-3.84,0-5.76-1.92-5.76-1.92s-2.68-5.6,0-8.95
		C-687.6,2646.23-686.97,2646.87-686.97,2646.87z"/>
</g>
<g id="_x32_do_columna">
	<linearGradient id="SVGID_12_" gradientUnits="userSpaceOnUse" x1="-775" y1="1193.9445" x2="-691.9135" y2="1193.9445">
		<stop  offset="0" style="stop-color:#FF7BAC"/>
		<stop  offset="0.1643" style="stop-color:#E25694;stop-opacity:0.9122"/>
		<stop  offset="0.5615" style="stop-color:#9E005D;stop-opacity:0.7"/>
		<stop  offset="0.785" style="stop-color:#7F1979;stop-opacity:0.802"/>
		<stop  offset="1" style="stop-color:#662D91;stop-opacity:0.9"/>
	</linearGradient>
	<path class="st16" d="M-767,1099h68c0,0,8,6,7,9s0,174,0,174s-1,4-7,6s-68,0-68,0s-8-1-8-11s0-170,0-170S-771,1099-767,1099z"/>
	<linearGradient id="SVGID_13_" gradientUnits="userSpaceOnUse" x1="-773.8889" y1="1144.4445" x2="-694" y2="1144.4445">
		<stop  offset="0" style="stop-color:#CCCCCC"/>
		<stop  offset="0.2039" style="stop-color:#CDCDCD"/>
		<stop  offset="0.2826" style="stop-color:#D6D6D6"/>
		<stop  offset="0.4773" style="stop-color:#E6E6E6"/>
		<stop  offset="0.6983" style="stop-color:#EFEFEF"/>
		<stop  offset="1" style="stop-color:#F2F2F2"/>
	</linearGradient>
	<path class="st17" d="M-760.8,1099h50.04c0,0,2.76,0,3.76,2s-1,3-1,3h-52C-764,1103-760.8,1099-760.8,1099z M-742,1129h16
		c0,0,2-2,0-5h-16C-742,1124-746,1126-742,1129z M-737,1137v52c2,2,5,0,5,0v-52C-734,1133-737,1137-737,1137z M-748,1137v52
		c2,2,5,0,5,0v-28.54V1137C-745,1133-748,1137-748,1137z M-726,1136v52c2,2,5,0,5,0v-28.54V1136C-723,1132-726,1136-726,1136z
		 M-716,1149v34c0,0,2,6,5,0v-34C-711,1149-713,1145-716,1149z M-758,1149v34c0,0,2,6,5,0v-34C-753,1149-755,1145-758,1149z
		 M-764,1116h60c0,0,5,3,5,9c0,0,1,5-3,11c0,0-1,2-10,1c0,0-6-6-4-12c0,0-3-5-5,0c-1.18,0.72-0.2,10.73,4,14c0,0,4,5,9,5s11-6,11-6
		s3-6,3-14c0,0,0-8-6-13c0,0-2-2-4-2s-60,0-60,0s-10,3-9,12c0,0-2,8,0,15c0,0,3,7,9,8s10-3,10-3s5-3,6-9v-7c0,0-2-3-4,0c0,0-1,4-2,8
		c0,0,0,4-6,4s-9-3-9-3s-4.19-8.76,0-14C-765,1115-764,1116-764,1116z"/>
	<linearGradient id="SVGID_14_" gradientUnits="userSpaceOnUse" x1="254.8772" y1="518.5613" x2="354.9516" y2="518.5613">
		<stop  offset="0.0894" style="stop-color:#29ABE2"/>
		<stop  offset="0.4829" style="stop-color:#1879A9"/>
		<stop  offset="0.8219" style="stop-color:#0B537E"/>
		<stop  offset="0.9944" style="stop-color:#06456E"/>
	</linearGradient>
	<path class="st18" d="M264.51,404.2h81.9c0,0,9.64,7.23,8.43,10.84c-1.2,3.61,0,209.58,0,209.58s-1.2,4.82-8.43,7.23
		c-7.23,2.41-81.9,0-81.9,0s-9.64-1.2-9.64-13.25s0-204.76,0-204.76S259.7,404.2,264.51,404.2z"/>
	<linearGradient id="SVGID_15_" gradientUnits="userSpaceOnUse" x1="256.2155" y1="458.9405" x2="352.4385" y2="458.9405">
		<stop  offset="0" style="stop-color:#CCCCCC"/>
		<stop  offset="0.2039" style="stop-color:#CDCDCD"/>
		<stop  offset="0.2826" style="stop-color:#D6D6D6"/>
		<stop  offset="0.4773" style="stop-color:#E6E6E6"/>
		<stop  offset="0.6983" style="stop-color:#EFEFEF"/>
		<stop  offset="1" style="stop-color:#F2F2F2"/>
	</linearGradient>
	<path class="st19" d="M271.98,404.2h60.27c0,0,3.32,0,4.53,2.41c1.2,2.41-1.2,3.61-1.2,3.61h-62.63
		C268.13,409.02,271.98,404.2,271.98,404.2z M294.62,440.34h19.27c0,0,2.41-2.41,0-6.02h-19.27
		C294.62,434.32,289.81,436.72,294.62,440.34z M300.65,449.97v62.63c2.41,2.41,6.02,0,6.02,0v-62.63
		C304.26,445.16,300.65,449.97,300.65,449.97z M287.4,449.97v62.63c2.41,2.41,6.02,0,6.02,0v-34.38v-28.26
		C291.01,445.16,287.4,449.97,287.4,449.97z M313.9,448.77v62.63c2.41,2.41,6.02,0,6.02,0v-34.38v-28.26
		C317.51,443.95,313.9,448.77,313.9,448.77z M325.94,464.43v40.95c0,0,2.41,7.23,6.02,0v-40.95
		C331.96,464.43,329.55,459.61,325.94,464.43z M275.35,464.43v40.95c0,0,2.41,7.23,6.02,0v-40.95
		C281.38,464.43,278.97,459.61,275.35,464.43z M268.13,424.68h72.27c0,0,6.02,3.61,6.02,10.84c0,0,1.2,6.02-3.61,13.25
		c0,0-1.2,2.41-12.04,1.2c0,0-7.23-7.23-4.82-14.45c0,0-3.61-6.02-6.02,0c-1.42,0.86-0.24,12.92,4.82,16.86
		c0,0,4.82,6.02,10.84,6.02s13.25-7.23,13.25-7.23s3.61-7.23,3.61-16.86c0,0,0-9.64-7.23-15.66c0,0-2.41-2.41-4.82-2.41
		c-2.41,0-72.27,0-72.27,0s-12.04,3.61-10.84,14.45c0,0-2.41,9.64,0,18.07c0,0,3.61,8.43,10.84,9.64c7.23,1.2,12.04-3.61,12.04-3.61
		s6.02-3.61,7.23-10.84v-8.43c0,0-2.41-3.61-4.82,0c0,0-1.2,4.82-2.41,9.64c0,0,0,4.82-7.23,4.82c-7.23,0-10.84-3.61-10.84-3.61
		s-5.05-10.55,0-16.86C266.92,423.48,268.13,424.68,268.13,424.68z"/>
	<linearGradient id="SVGID_16_" gradientUnits="userSpaceOnUse" x1="-615" y1="1446.9445" x2="-531.9135" y2="1446.9445">
		<stop  offset="0" style="stop-color:#FF7BAC"/>
		<stop  offset="0.1643" style="stop-color:#E25694;stop-opacity:0.9122"/>
		<stop  offset="0.5615" style="stop-color:#9E005D;stop-opacity:0.7"/>
		<stop  offset="0.785" style="stop-color:#7F1979;stop-opacity:0.802"/>
		<stop  offset="1" style="stop-color:#662D91;stop-opacity:0.9"/>
	</linearGradient>
	<path class="st20" d="M-607,1352h68c0,0,8,6,7,9s0,174,0,174s-1,4-7,6s-68,0-68,0s-8-1-8-11s0-170,0-170S-611,1352-607,1352z"/>
	<linearGradient id="SVGID_17_" gradientUnits="userSpaceOnUse" x1="-613.8889" y1="1397.4445" x2="-534" y2="1397.4445">
		<stop  offset="0" style="stop-color:#CCCCCC"/>
		<stop  offset="0.2039" style="stop-color:#CDCDCD"/>
		<stop  offset="0.2826" style="stop-color:#D6D6D6"/>
		<stop  offset="0.4773" style="stop-color:#E6E6E6"/>
		<stop  offset="0.6983" style="stop-color:#EFEFEF"/>
		<stop  offset="1" style="stop-color:#F2F2F2"/>
	</linearGradient>
	<path class="st21" d="M-600.8,1352h50.04c0,0,2.76,0,3.76,2s-1,3-1,3h-52C-604,1356-600.8,1352-600.8,1352z M-582,1382h16
		c0,0,2-2,0-5h-16C-582,1377-586,1379-582,1382z M-577,1390v52c2,2,5,0,5,0v-52C-574,1386-577,1390-577,1390z M-588,1390v52
		c2,2,5,0,5,0v-28.54V1390C-585,1386-588,1390-588,1390z M-566,1389v52c2,2,5,0,5,0v-28.54V1389C-563,1385-566,1389-566,1389z
		 M-556,1402v34c0,0,2,6,5,0v-34C-551,1402-553,1398-556,1402z M-598,1402v34c0,0,2,6,5,0v-34C-593,1402-595,1398-598,1402z
		 M-604,1369h60c0,0,5,3,5,9c0,0,1,5-3,11c0,0-1,2-10,1c0,0-6-6-4-12c0,0-3-5-5,0c-1.18,0.72-0.2,10.73,4,14c0,0,4,5,9,5s11-6,11-6
		s3-6,3-14c0,0,0-8-6-13c0,0-2-2-4-2s-60,0-60,0s-10,3-9,12c0,0-2,8,0,15c0,0,3,7,9,8s10-3,10-3s5-3,6-9v-7c0,0-2-3-4,0c0,0-1,4-2,8
		c0,0,0,4-6,4s-9-3-9-3s-4.19-8.76,0-14C-605,1368-604,1369-604,1369z"/>
	<linearGradient id="SVGID_18_" gradientUnits="userSpaceOnUse" x1="-586.1752" y1="1687.8169" x2="-533.5086" y2="1687.8169">
		<stop  offset="0" style="stop-color:#FF7BAC"/>
		<stop  offset="0.1643" style="stop-color:#E25694;stop-opacity:0.9122"/>
		<stop  offset="0.5615" style="stop-color:#9E005D;stop-opacity:0.7"/>
		<stop  offset="0.785" style="stop-color:#7F1979;stop-opacity:0.802"/>
		<stop  offset="1" style="stop-color:#662D91;stop-opacity:0.9"/>
	</linearGradient>
	<path class="st22" d="M-581.1,1627.63h43.1c0,0,5.07,3.8,4.44,5.7c-0.63,1.9,0,110.29,0,110.29s-0.63,2.54-4.44,3.8
		c-3.8,1.27-43.1,0-43.1,0s-5.07-0.63-5.07-6.97c0-6.34,0-107.76,0-107.76S-583.64,1627.63-581.1,1627.63z"/>
	<linearGradient id="SVGID_19_" gradientUnits="userSpaceOnUse" x1="-585.4709" y1="1656.4401" x2="-534.8312" y2="1656.4401">
		<stop  offset="0" style="stop-color:#CCCCCC"/>
		<stop  offset="0.2039" style="stop-color:#CDCDCD"/>
		<stop  offset="0.2826" style="stop-color:#D6D6D6"/>
		<stop  offset="0.4773" style="stop-color:#E6E6E6"/>
		<stop  offset="0.6983" style="stop-color:#EFEFEF"/>
		<stop  offset="1" style="stop-color:#F2F2F2"/>
	</linearGradient>
	<path class="st23" d="M-577.17,1627.63h31.72c0,0,1.75,0,2.38,1.27c0.63,1.27-0.63,1.9-0.63,1.9h-32.96
		C-579.2,1630.17-577.17,1627.63-577.17,1627.63z M-565.26,1646.65h10.14c0,0,1.27-1.27,0-3.17h-10.14
		C-565.26,1643.48-567.79,1644.75-565.26,1646.65z M-562.09,1651.72v32.96c1.27,1.27,3.17,0,3.17,0v-32.96
		C-560.19,1649.19-562.09,1651.72-562.09,1651.72z M-569.06,1651.72v32.96c1.27,1.27,3.17,0,3.17,0v-18.09v-14.87
		C-567.16,1649.19-569.06,1651.72-569.06,1651.72z M-555.12,1651.09v32.96c1.27,1.27,3.17,0,3.17,0v-18.09v-14.87
		C-553.21,1648.55-555.12,1651.09-555.12,1651.09z M-548.78,1659.33v21.55c0,0,1.27,3.8,3.17,0v-21.55
		C-545.61,1659.33-546.87,1656.79-548.78,1659.33z M-575.4,1659.33v21.55c0,0,1.27,3.8,3.17,0v-21.55
		C-572.23,1659.33-573.5,1656.79-575.4,1659.33z M-579.2,1638.41h38.03c0,0,3.17,1.9,3.17,5.7c0,0,0.63,3.17-1.9,6.97
		c0,0-0.63,1.27-6.34,0.63c0,0-3.8-3.8-2.54-7.61c0,0-1.9-3.17-3.17,0c-0.75,0.46-0.13,6.8,2.54,8.87c0,0,2.54,3.17,5.7,3.17
		c3.17,0,6.97-3.8,6.97-3.8s1.9-3.8,1.9-8.87c0,0,0-5.07-3.8-8.24c0,0-1.27-1.27-2.54-1.27s-38.03,0-38.03,0s-6.34,1.9-5.7,7.61
		c0,0-1.27,5.07,0,9.51c0,0,1.9,4.44,5.7,5.07c3.8,0.63,6.34-1.9,6.34-1.9s3.17-1.9,3.8-5.7v-4.44c0,0-1.27-1.9-2.54,0
		c0,0-0.63,2.54-1.27,5.07c0,0,0,2.54-3.8,2.54s-5.7-1.9-5.7-1.9s-2.66-5.55,0-8.87C-579.84,1637.78-579.2,1638.41-579.2,1638.41z"
		/>
	<path class="st10" d="M327,2051h68c0,0,8,6,7,9s0,174,0,174s-1,4-7,6s-68,0-68,0s-8-1-8-11s0-170,0-170S323,2051,327,2051z"/>
	<path class="st0" d="M333.2,2051h50.04c0,0,2.76,0,3.76,2s-1,3-1,3h-52C330,2055,333.2,2051,333.2,2051z M352,2081h16c0,0,2-2,0-5
		h-16C352,2076,348,2078,352,2081z M357,2089v52c2,2,5,0,5,0v-52C360,2085,357,2089,357,2089z M346,2089v52c2,2,5,0,5,0v-28.54V2089
		C349,2085,346,2089,346,2089z M368,2088v52c2,2,5,0,5,0v-28.54V2088C371,2084,368,2088,368,2088z M378,2101v34c0,0,2,6,5,0v-34
		C383,2101,381,2097,378,2101z M336,2101v34c0,0,2,6,5,0v-34C341,2101,339,2097,336,2101z M330,2068h60c0,0,5,3,5,9c0,0,1,5-3,11
		c0,0-1,2-10,1c0,0-6-6-4-12c0,0-3-5-5,0c-1.18,0.72-0.2,10.73,4,14c0,0,4,5,9,5s11-6,11-6s3-6,3-14c0,0,0-8-6-13c0,0-2-2-4-2
		s-60,0-60,0s-10,3-9,12c0,0-2,8,0,15c0,0,3,7,9,8s10-3,10-3s5-3,6-9v-7c0,0-2-3-4,0c0,0-1,4-2,8c0,0,0,4-6,4s-9-3-9-3
		s-4.19-8.76,0-14C329,2067,330,2068,330,2068z"/>
	<path class="st10" d="M501.42,2600.31h42.82c0,0,5.04,3.78,4.41,5.67c-0.63,1.89,0,109.57,0,109.57s-0.63,2.52-4.41,3.78
		c-3.78,1.26-42.82,0-42.82,0s-5.04-0.63-5.04-6.93s0-107.06,0-107.06S498.9,2600.31,501.42,2600.31z"/>
	<path class="st0" d="M505.32,2600.31h31.51c0,0,1.74,0,2.37,1.26c0.63,1.26-0.63,1.89-0.63,1.89h-32.75
		C503.31,2602.83,505.32,2600.31,505.32,2600.31z M517.16,2619.2h10.08c0,0,1.26-1.26,0-3.15h-10.08
		C517.16,2616.05,514.64,2617.31,517.16,2619.2z M520.31,2624.24v32.75c1.26,1.26,3.15,0,3.15,0v-32.75
		C522.2,2621.72,520.31,2624.24,520.31,2624.24z M513.38,2624.24v32.75c1.26,1.26,3.15,0,3.15,0v-17.97v-14.77
		C515.27,2621.72,513.38,2624.24,513.38,2624.24z M527.24,2623.61v32.75c1.26,1.26,3.15,0,3.15,0v-17.97v-14.77
		C529.13,2621.09,527.24,2623.61,527.24,2623.61z M533.54,2631.8v21.41c0,0,1.26,3.78,3.15,0v-21.41
		C536.69,2631.8,535.43,2629.28,533.54,2631.8z M507.09,2631.8v21.41c0,0,1.26,3.78,3.15,0v-21.41
		C510.24,2631.8,508.98,2629.28,507.09,2631.8z M503.31,2611.01h37.78c0,0,3.15,1.89,3.15,5.67c0,0,0.63,3.15-1.89,6.93
		c0,0-0.63,1.26-6.3,0.63c0,0-3.78-3.78-2.52-7.56c0,0-1.89-3.15-3.15,0c-0.74,0.45-0.12,6.76,2.52,8.82c0,0,2.52,3.15,5.67,3.15
		s6.93-3.78,6.93-3.78s1.89-3.78,1.89-8.82c0,0,0-5.04-3.78-8.19c0,0-1.26-1.26-2.52-1.26s-37.78,0-37.78,0s-6.3,1.89-5.67,7.56
		c0,0-1.26,5.04,0,9.45c0,0,1.89,4.41,5.67,5.04c3.78,0.63,6.3-1.89,6.3-1.89s3.15-1.89,3.78-5.67v-4.41c0,0-1.26-1.89-2.52,0
		c0,0-0.63,2.52-1.26,5.04c0,0,0,2.52-3.78,2.52s-5.67-1.89-5.67-1.89s-2.64-5.52,0-8.82
		C502.68,2610.38,503.31,2611.01,503.31,2611.01z"/>
	<path class="st10" d="M473,2298h68c0,0,8,6,7,9s0,174,0,174s-1,4-7,6s-68,0-68,0s-8-1-8-11s0-170,0-170S469,2298,473,2298z"/>
	<path class="st0" d="M479.2,2298h50.04c0,0,2.76,0,3.76,2s-1,3-1,3h-52C476,2302,479.2,2298,479.2,2298z M498,2328h16c0,0,2-2,0-5
		h-16C498,2323,494,2325,498,2328z M503,2336v52c2,2,5,0,5,0v-52C506,2332,503,2336,503,2336z M492,2336v52c2,2,5,0,5,0v-28.54V2336
		C495,2332,492,2336,492,2336z M514,2335v52c2,2,5,0,5,0v-28.54V2335C517,2331,514,2335,514,2335z M524,2348v34c0,0,2,6,5,0v-34
		C529,2348,527,2344,524,2348z M482,2348v34c0,0,2,6,5,0v-34C487,2348,485,2344,482,2348z M476,2315h60c0,0,5,3,5,9c0,0,1,5-3,11
		c0,0-1,2-10,1c0,0-6-6-4-12c0,0-3-5-5,0c-1.18,0.72-0.2,10.73,4,14c0,0,4,5,9,5s11-6,11-6s3-6,3-14c0,0,0-8-6-13c0,0-2-2-4-2
		s-60,0-60,0s-10,3-9,12c0,0-2,8,0,15c0,0,3,7,9,8s10-3,10-3s5-3,6-9v-7c0,0-2-3-4,0c0,0-1,4-2,8c0,0,0,4-6,4s-9-3-9-3
		s-4.19-8.76,0-14C475,2314,476,2315,476,2315z"/>
	<path class="st24" d="M506.2,2853h50.04c0,0,2.76,0,3.76,2s-1,3-1,3h-52C503,2857,506.2,2853,506.2,2853z M525,2883h16c0,0,2-2,0-5
		h-16C525,2878,521,2880,525,2883z M530,2891v52c2,2,5,0,5,0v-52C533,2887,530,2891,530,2891z M519,2891v52c2,2,5,0,5,0v-28.54V2891
		C522,2887,519,2891,519,2891z M541,2890v52c2,2,5,0,5,0v-28.54V2890C544,2886,541,2890,541,2890z M551,2903v34c0,0,2,6,5,0v-34
		C556,2903,554,2899,551,2903z M509,2903v34c0,0,2,6,5,0v-34C514,2903,512,2899,509,2903z M503,2870h60c0,0,5,3,5,9c0,0,1,5-3,11
		c0,0-1,2-10,1c0,0-6-6-4-12c0,0-3-5-5,0c-1.18,0.72-0.2,10.73,4,14c0,0,4,5,9,5s11-6,11-6s3-6,3-14c0,0,0-8-6-13c0,0-2-2-4-2
		s-60,0-60,0s-10,3-9,12c0,0-2,8,0,15c0,0,3,7,9,8s10-3,10-3s5-3,6-9v-7c0,0-2-3-4,0c0,0-1,4-2,8c0,0,0,4-6,4s-9-3-9-3
		s-4.19-8.76,0-14C502,2869,503,2870,503,2870z"/>
	<path class="st11" d="M-641,2344h68c0,0,8,6,7,9s0,174,0,174s-1,4-7,6s-68,0-68,0s-8-1-8-11s0-170,0-170S-645,2344-641,2344z"/>
	<path class="st0" d="M-634.8,2344h50.04c0,0,2.76,0,3.76,2s-1,3-1,3h-52C-638,2348-634.8,2344-634.8,2344z M-616,2374h16
		c0,0,2-2,0-5h-16C-616,2369-620,2371-616,2374z M-611,2382v52c2,2,5,0,5,0v-52C-608,2378-611,2382-611,2382z M-622,2382v52
		c2,2,5,0,5,0v-28.54V2382C-619,2378-622,2382-622,2382z M-600,2381v52c2,2,5,0,5,0v-28.54V2381C-597,2377-600,2381-600,2381z
		 M-590,2394v34c0,0,2,6,5,0v-34C-585,2394-587,2390-590,2394z M-632,2394v34c0,0,2,6,5,0v-34C-627,2394-629,2390-632,2394z
		 M-638,2361h60c0,0,5,3,5,9c0,0,1,5-3,11c0,0-1,2-10,1c0,0-6-6-4-12c0,0-3-5-5,0c-1.18,0.72-0.2,10.73,4,14c0,0,4,5,9,5s11-6,11-6
		s3-6,3-14c0,0,0-8-6-13c0,0-2-2-4-2s-60,0-60,0s-10,3-9,12c0,0-2,8,0,15c0,0,3,7,9,8s10-3,10-3s5-3,6-9v-7c0,0-2-3-4,0c0,0-1,4-2,8
		c0,0,0,4-6,4s-9-3-9-3s-4.19-8.76,0-14C-639,2360-638,2361-638,2361z"/>
	<path class="st11" d="M-849,2052h68c0,0,8,6,7,9s0,174,0,174s-1,4-7,6s-68,0-68,0s-8-1-8-11s0-170,0-170S-853,2052-849,2052z"/>
	<path class="st0" d="M-842.8,2052h50.04c0,0,2.76,0,3.76,2s-1,3-1,3h-52C-846,2056-842.8,2052-842.8,2052z M-824,2082h16
		c0,0,2-2,0-5h-16C-824,2077-828,2079-824,2082z M-819,2090v52c2,2,5,0,5,0v-52C-816,2086-819,2090-819,2090z M-830,2090v52
		c2,2,5,0,5,0v-28.54V2090C-827,2086-830,2090-830,2090z M-808,2089v52c2,2,5,0,5,0v-28.54V2089C-805,2085-808,2089-808,2089z
		 M-798,2102v34c0,0,2,6,5,0v-34C-793,2102-795,2098-798,2102z M-840,2102v34c0,0,2,6,5,0v-34C-835,2102-837,2098-840,2102z
		 M-846,2069h60c0,0,5,3,5,9c0,0,1,5-3,11c0,0-1,2-10,1c0,0-6-6-4-12c0,0-3-5-5,0c-1.18,0.72-0.2,10.73,4,14c0,0,4,5,9,5s11-6,11-6
		s3-6,3-14c0,0,0-8-6-13c0,0-2-2-4-2s-60,0-60,0s-10,3-9,12c0,0-2,8,0,15c0,0,3,7,9,8s10-3,10-3s5-3,6-9v-7c0,0-2-3-4,0c0,0-1,4-2,8
		c0,0,0,4-6,4s-9-3-9-3s-4.19-8.76,0-14C-847,2068-846,2069-846,2069z"/>
	<g class="st12">
		<linearGradient id="SVGID_20_" gradientUnits="userSpaceOnUse" x1="381" y1="1185.9445" x2="464.0865" y2="1185.9445">
			<stop  offset="0" style="stop-color:#1C6075"/>
			<stop  offset="1" style="stop-color:#4D4D4D"/>
		</linearGradient>
		<path class="st25" d="M389,1091h68c0,0,8,6,7,9s0,174,0,174s-1,4-7,6s-68,0-68,0s-8-1-8-11s0-170,0-170S385,1091,389,1091z"/>
	</g>
	<path class="st0" d="M395.2,1091h50.04c0,0,2.76,0,3.76,2s-1,3-1,3h-52C392,1095,395.2,1091,395.2,1091z M414,1121h16c0,0,2-2,0-5
		h-16C414,1116,410,1118,414,1121z M419,1129v52c2,2,5,0,5,0v-52C422,1125,419,1129,419,1129z M408,1129v52c2,2,5,0,5,0v-28.54V1129
		C411,1125,408,1129,408,1129z M430,1128v52c2,2,5,0,5,0v-28.54V1128C433,1124,430,1128,430,1128z M440,1141v34c0,0,2,6,5,0v-34
		C445,1141,443,1137,440,1141z M398,1141v34c0,0,2,6,5,0v-34C403,1141,401,1137,398,1141z M392,1108h60c0,0,5,3,5,9c0,0,1,5-3,11
		c0,0-1,2-10,1c0,0-6-6-4-12c0,0-3-5-5,0c-1.18,0.72-0.2,10.73,4,14c0,0,4,5,9,5s11-6,11-6s3-6,3-14c0,0,0-8-6-13c0,0-2-2-4-2
		s-60,0-60,0s-10,3-9,12c0,0-2,8,0,15c0,0,3,7,9,8s10-3,10-3s5-3,6-9v-7c0,0-2-3-4,0c0,0-1,4-2,8c0,0,0,4-6,4s-9-3-9-3
		s-4.19-8.76,0-14C391,1107,392,1108,392,1108z"/>
	<g class="st12">
		<linearGradient id="SVGID_21_" gradientUnits="userSpaceOnUse" x1="524" y1="1476.9445" x2="607.0865" y2="1476.9445">
			<stop  offset="0" style="stop-color:#1C6075"/>
			<stop  offset="1" style="stop-color:#4D4D4D"/>
		</linearGradient>
		<path class="st26" d="M532,1382h68c0,0,8,6,7,9s0,174,0,174s-1,4-7,6s-68,0-68,0s-8-1-8-11s0-170,0-170S528,1382,532,1382z"/>
	</g>
	<path class="st0" d="M538.2,1382h50.04c0,0,2.76,0,3.76,2s-1,3-1,3h-52C535,1386,538.2,1382,538.2,1382z M557,1412h16c0,0,2-2,0-5
		h-16C557,1407,553,1409,557,1412z M562,1420v52c2,2,5,0,5,0v-52C565,1416,562,1420,562,1420z M551,1420v52c2,2,5,0,5,0v-28.54V1420
		C554,1416,551,1420,551,1420z M573,1419v52c2,2,5,0,5,0v-28.54V1419C576,1415,573,1419,573,1419z M583,1432v34c0,0,2,6,5,0v-34
		C588,1432,586,1428,583,1432z M541,1432v34c0,0,2,6,5,0v-34C546,1432,544,1428,541,1432z M535,1399h60c0,0,5,3,5,9c0,0,1,5-3,11
		c0,0-1,2-10,1c0,0-6-6-4-12c0,0-3-5-5,0c-1.18,0.72-0.2,10.73,4,14c0,0,4,5,9,5s11-6,11-6s3-6,3-14c0,0,0-8-6-13c0,0-2-2-4-2
		s-60,0-60,0s-10,3-9,12c0,0-2,8,0,15c0,0,3,7,9,8s10-3,10-3s5-3,6-9v-7c0,0-2-3-4,0c0,0-1,4-2,8c0,0,0,4-6,4s-9-3-9-3
		s-4.19-8.76,0-14C534,1398,535,1399,535,1399z"/>
	<g class="st12">
		<linearGradient id="SVGID_22_" gradientUnits="userSpaceOnUse" x1="552.8582" y1="1756.3967" x2="593.903" y2="1756.3967">
			<stop  offset="0" style="stop-color:#1C6075"/>
			<stop  offset="1" style="stop-color:#4D4D4D"/>
		</linearGradient>
		<path class="st27" d="M556.81,1709.49h33.59c0,0,3.95,2.96,3.46,4.45c-0.49,1.48,0,85.96,0,85.96s-0.49,1.98-3.46,2.96
			c-2.96,0.99-33.59,0-33.59,0s-3.95-0.49-3.95-5.43s0-83.98,0-83.98S554.83,1709.49,556.81,1709.49z"/>
	</g>
	<path class="st0" d="M559.87,1711.49h24.72c0,0,1.36,0,1.86,0.99c0.49,0.99-0.49,1.48-0.49,1.48h-25.69
		C558.29,1713.47,559.87,1711.49,559.87,1711.49z M569.16,1726.31h7.9c0,0,0.99-0.99,0-2.47h-7.9
		C569.16,1723.84,567.18,1724.83,569.16,1726.31z M571.63,1730.27v25.69c0.99,0.99,2.47,0,2.47,0v-25.69
		C573.11,1728.29,571.63,1730.27,571.63,1730.27z M566.2,1730.27v25.69c0.99,0.99,2.47,0,2.47,0v-14.1v-11.59
		C567.68,1728.29,566.2,1730.27,566.2,1730.27z M577.06,1729.77v25.69c0.99,0.99,2.47,0,2.47,0v-14.1v-11.59
		C578.55,1727.8,577.06,1729.77,577.06,1729.77z M582,1736.19v16.8c0,0,0.99,2.96,2.47,0v-16.8
		C584.47,1736.19,583.49,1734.22,582,1736.19z M561.26,1736.19v16.8c0,0,0.99,2.96,2.47,0v-16.8
		C563.73,1736.19,562.74,1734.22,561.26,1736.19z M558.29,1719.89h29.64c0,0,2.47,1.48,2.47,4.45c0,0,0.49,2.47-1.48,5.43
		c0,0-0.49,0.99-4.94,0.49c0,0-2.96-2.96-1.98-5.93c0,0-1.48-2.47-2.47,0c-0.58,0.35-0.1,5.3,1.98,6.92c0,0,1.98,2.47,4.45,2.47
		c2.47,0,5.43-2.96,5.43-2.96s1.48-2.96,1.48-6.92c0,0,0-3.95-2.96-6.42c0,0-0.99-0.99-1.98-0.99c-0.99,0-29.64,0-29.64,0
		s-4.94,1.48-4.45,5.93c0,0-0.99,3.95,0,7.41c0,0,1.48,3.46,4.45,3.95c2.96,0.49,4.94-1.48,4.94-1.48s2.47-1.48,2.96-4.45v-3.46
		c0,0-0.99-1.48-1.98,0c0,0-0.49,1.98-0.99,3.95c0,0,0,1.98-2.96,1.98c-2.96,0-4.45-1.48-4.45-1.48s-2.07-4.33,0-6.92
		C557.8,1719.4,558.29,1719.89,558.29,1719.89z"/>
	<path class="st11" d="M-620.45,2636.64h43.49c0,0,5.12,3.84,4.48,5.76c-0.64,1.92,0,111.28,0,111.28s-0.64,2.56-4.48,3.84
		s-43.49,0-43.49,0s-5.12-0.64-5.12-7.03c0-6.4,0-108.72,0-108.72S-623.01,2636.64-620.45,2636.64z"/>
	<path class="st0" d="M-616.49,2636.64h32c0,0,1.77,0,2.4,1.28c0.64,1.28-0.64,1.92-0.64,1.92h-33.26
		C-618.53,2639.2-616.49,2636.64-616.49,2636.64z M-604.46,2655.83h10.23c0,0,1.28-1.28,0-3.2h-10.23
		C-604.46,2652.63-607.02,2653.91-604.46,2655.83z M-601.27,2660.94v33.26c1.28,1.28,3.2,0,3.2,0v-33.26
		C-599.35,2658.38-601.27,2660.94-601.27,2660.94z M-608.3,2660.94v33.26c1.28,1.28,3.2,0,3.2,0v-18.25v-15
		C-606.38,2658.38-608.3,2660.94-608.3,2660.94z M-594.23,2660.3v33.26c1.28,1.28,3.2,0,3.2,0v-18.25v-15
		C-592.31,2657.74-594.23,2660.3-594.23,2660.3z M-587.84,2668.62v21.74c0,0,1.28,3.84,3.2,0v-21.74
		C-584.64,2668.62-585.92,2666.06-587.84,2668.62z M-614.7,2668.62v21.74c0,0,1.28,3.84,3.2,0v-21.74
		C-611.5,2668.62-612.78,2666.06-614.7,2668.62z M-618.53,2647.51h38.37c0,0,3.2,1.92,3.2,5.76c0,0,0.64,3.2-1.92,7.04
		c0,0-0.64,1.28-6.4,0.64c0,0-3.84-3.84-2.56-7.67c0,0-1.92-3.2-3.2,0c-0.75,0.46-0.13,6.86,2.56,8.95c0,0,2.56,3.2,5.76,3.2
		c3.2,0,7.04-3.84,7.04-3.84s1.92-3.84,1.92-8.95c0,0,0-5.12-3.84-8.31c0,0-1.28-1.28-2.56-1.28c-1.28,0-38.37,0-38.37,0
		s-6.4,1.92-5.76,7.67c0,0-1.28,5.12,0,9.59c0,0,1.92,4.48,5.76,5.12c3.84,0.64,6.4-1.92,6.4-1.92s3.2-1.92,3.84-5.76v-4.48
		c0,0-1.28-1.92-2.56,0c0,0-0.64,2.56-1.28,5.12c0,0,0,2.56-3.84,2.56s-5.76-1.92-5.76-1.92s-2.68-5.6,0-8.95
		C-619.17,2646.87-618.53,2647.51-618.53,2647.51z"/>
</g>
<g id="_x33_era_columna">
	<linearGradient id="SVGID_23_" gradientUnits="userSpaceOnUse" x1="-668" y1="1193.9445" x2="-584.9135" y2="1193.9445">
		<stop  offset="0" style="stop-color:#FF7BAC"/>
		<stop  offset="0.1643" style="stop-color:#E25694;stop-opacity:0.9122"/>
		<stop  offset="0.5615" style="stop-color:#9E005D;stop-opacity:0.7"/>
		<stop  offset="0.785" style="stop-color:#7F1979;stop-opacity:0.802"/>
		<stop  offset="1" style="stop-color:#662D91;stop-opacity:0.9"/>
	</linearGradient>
	<path class="st28" d="M-660,1099h68c0,0,8,6,7,9s0,174,0,174s-1,4-7,6s-68,0-68,0s-8-1-8-11s0-170,0-170S-664,1099-660,1099z"/>
	<linearGradient id="SVGID_24_" gradientUnits="userSpaceOnUse" x1="-666.8889" y1="1144.4445" x2="-587" y2="1144.4445">
		<stop  offset="0" style="stop-color:#CCCCCC"/>
		<stop  offset="0.2039" style="stop-color:#CDCDCD"/>
		<stop  offset="0.2826" style="stop-color:#D6D6D6"/>
		<stop  offset="0.4773" style="stop-color:#E6E6E6"/>
		<stop  offset="0.6983" style="stop-color:#EFEFEF"/>
		<stop  offset="1" style="stop-color:#F2F2F2"/>
	</linearGradient>
	<path class="st29" d="M-653.8,1099h50.04c0,0,2.76,0,3.76,2s-1,3-1,3h-52C-657,1103-653.8,1099-653.8,1099z M-635,1129h16
		c0,0,2-2,0-5h-16C-635,1124-639,1126-635,1129z M-630,1137v52c2,2,5,0,5,0v-52C-627,1133-630,1137-630,1137z M-641,1137v52
		c2,2,5,0,5,0v-28.54V1137C-638,1133-641,1137-641,1137z M-619,1136v52c2,2,5,0,5,0v-28.54V1136C-616,1132-619,1136-619,1136z
		 M-609,1149v34c0,0,2,6,5,0v-34C-604,1149-606,1145-609,1149z M-651,1149v34c0,0,2,6,5,0v-34C-646,1149-648,1145-651,1149z
		 M-657,1116h60c0,0,5,3,5,9c0,0,1,5-3,11c0,0-1,2-10,1c0,0-6-6-4-12c0,0-3-5-5,0c-1.18,0.72-0.2,10.73,4,14c0,0,4,5,9,5s11-6,11-6
		s3-6,3-14c0,0,0-8-6-13c0,0-2-2-4-2s-60,0-60,0s-10,3-9,12c0,0-2,8,0,15c0,0,3,7,9,8s10-3,10-3s5-3,6-9v-7c0,0-2-3-4,0c0,0-1,4-2,8
		c0,0,0,4-6,4s-9-3-9-3s-4.19-8.76,0-14C-658,1115-657,1116-657,1116z"/>
	<linearGradient id="SVGID_25_" gradientUnits="userSpaceOnUse" x1="383.7545" y1="518.5613" x2="483.8289" y2="518.5613">
		<stop  offset="0.0894" style="stop-color:#29ABE2"/>
		<stop  offset="0.4829" style="stop-color:#1879A9"/>
		<stop  offset="0.8219" style="stop-color:#0B537E"/>
		<stop  offset="0.9944" style="stop-color:#06456E"/>
	</linearGradient>
	<path class="st30" d="M393.39,404.2h81.9c0,0,9.64,7.23,8.43,10.84c-1.2,3.61,0,209.58,0,209.58s-1.2,4.82-8.43,7.23
		c-7.23,2.41-81.9,0-81.9,0s-9.64-1.2-9.64-13.25s0-204.76,0-204.76S388.57,404.2,393.39,404.2z"/>
	<linearGradient id="SVGID_26_" gradientUnits="userSpaceOnUse" x1="385.0928" y1="458.9405" x2="481.3158" y2="458.9405">
		<stop  offset="0" style="stop-color:#CCCCCC"/>
		<stop  offset="0.2039" style="stop-color:#CDCDCD"/>
		<stop  offset="0.2826" style="stop-color:#D6D6D6"/>
		<stop  offset="0.4773" style="stop-color:#E6E6E6"/>
		<stop  offset="0.6983" style="stop-color:#EFEFEF"/>
		<stop  offset="1" style="stop-color:#F2F2F2"/>
	</linearGradient>
	<path class="st31" d="M400.86,404.2h60.27c0,0,3.32,0,4.53,2.41c1.2,2.41-1.2,3.61-1.2,3.61h-62.63
		C397,409.02,400.86,404.2,400.86,404.2z M423.5,440.34h19.27c0,0,2.41-2.41,0-6.02H423.5C423.5,434.32,418.68,436.72,423.5,440.34z
		 M429.52,449.97v62.63c2.41,2.41,6.02,0,6.02,0v-62.63C433.14,445.16,429.52,449.97,429.52,449.97z M416.27,449.97v62.63
		c2.41,2.41,6.02,0,6.02,0v-34.38v-28.26C419.89,445.16,416.27,449.97,416.27,449.97z M442.77,448.77v62.63c2.41,2.41,6.02,0,6.02,0
		v-34.38v-28.26C446.39,443.95,442.77,448.77,442.77,448.77z M454.82,464.43v40.95c0,0,2.41,7.23,6.02,0v-40.95
		C460.84,464.43,458.43,459.61,454.82,464.43z M404.23,464.43v40.95c0,0,2.41,7.23,6.02,0v-40.95
		C410.25,464.43,407.84,459.61,404.23,464.43z M397,424.68h72.27c0,0,6.02,3.61,6.02,10.84c0,0,1.2,6.02-3.61,13.25
		c0,0-1.2,2.41-12.04,1.2c0,0-7.23-7.23-4.82-14.45c0,0-3.61-6.02-6.02,0c-1.42,0.86-0.24,12.92,4.82,16.86
		c0,0,4.82,6.02,10.84,6.02c6.02,0,13.25-7.23,13.25-7.23s3.61-7.23,3.61-16.86c0,0,0-9.64-7.23-15.66c0,0-2.41-2.41-4.82-2.41
		c-2.41,0-72.27,0-72.27,0s-12.04,3.61-10.84,14.45c0,0-2.41,9.64,0,18.07c0,0,3.61,8.43,10.84,9.64c7.23,1.2,12.04-3.61,12.04-3.61
		s6.02-3.61,7.23-10.84v-8.43c0,0-2.41-3.61-4.82,0c0,0-1.2,4.82-2.41,9.64c0,0,0,4.82-7.23,4.82c-7.23,0-10.84-3.61-10.84-3.61
		s-5.05-10.55,0-16.86C395.8,423.48,397,424.68,397,424.68z"/>
	<linearGradient id="SVGID_27_" gradientUnits="userSpaceOnUse" x1="-508" y1="1446.9445" x2="-424.9135" y2="1446.9445">
		<stop  offset="0" style="stop-color:#FF7BAC"/>
		<stop  offset="0.1643" style="stop-color:#E25694;stop-opacity:0.9122"/>
		<stop  offset="0.5615" style="stop-color:#9E005D;stop-opacity:0.7"/>
		<stop  offset="0.785" style="stop-color:#7F1979;stop-opacity:0.802"/>
		<stop  offset="1" style="stop-color:#662D91;stop-opacity:0.9"/>
	</linearGradient>
	<path class="st32" d="M-500,1352h68c0,0,8,6,7,9s0,174,0,174s-1,4-7,6s-68,0-68,0s-8-1-8-11s0-170,0-170S-504,1352-500,1352z"/>
	<linearGradient id="SVGID_28_" gradientUnits="userSpaceOnUse" x1="-506.8889" y1="1397.4445" x2="-427" y2="1397.4445">
		<stop  offset="0" style="stop-color:#CCCCCC"/>
		<stop  offset="0.2039" style="stop-color:#CDCDCD"/>
		<stop  offset="0.2826" style="stop-color:#D6D6D6"/>
		<stop  offset="0.4773" style="stop-color:#E6E6E6"/>
		<stop  offset="0.6983" style="stop-color:#EFEFEF"/>
		<stop  offset="1" style="stop-color:#F2F2F2"/>
	</linearGradient>
	<path class="st33" d="M-493.8,1352h50.04c0,0,2.76,0,3.76,2s-1,3-1,3h-52C-497,1356-493.8,1352-493.8,1352z M-475,1382h16
		c0,0,2-2,0-5h-16C-475,1377-479,1379-475,1382z M-470,1390v52c2,2,5,0,5,0v-52C-467,1386-470,1390-470,1390z M-481,1390v52
		c2,2,5,0,5,0v-28.54V1390C-478,1386-481,1390-481,1390z M-459,1389v52c2,2,5,0,5,0v-28.54V1389C-456,1385-459,1389-459,1389z
		 M-449,1402v34c0,0,2,6,5,0v-34C-444,1402-446,1398-449,1402z M-491,1402v34c0,0,2,6,5,0v-34C-486,1402-488,1398-491,1402z
		 M-497,1369h60c0,0,5,3,5,9c0,0,1,5-3,11c0,0-1,2-10,1c0,0-6-6-4-12c0,0-3-5-5,0c-1.18,0.72-0.2,10.73,4,14c0,0,4,5,9,5s11-6,11-6
		s3-6,3-14c0,0,0-8-6-13c0,0-2-2-4-2s-60,0-60,0s-10,3-9,12c0,0-2,8,0,15c0,0,3,7,9,8s10-3,10-3s5-3,6-9v-7c0,0-2-3-4,0c0,0-1,4-2,8
		c0,0,0,4-6,4s-9-3-9-3s-4.19-8.76,0-14C-498,1368-497,1369-497,1369z"/>
	<linearGradient id="SVGID_29_" gradientUnits="userSpaceOnUse" x1="-518.3504" y1="1687.8169" x2="-465.6838" y2="1687.8169">
		<stop  offset="0" style="stop-color:#FF7BAC"/>
		<stop  offset="0.1643" style="stop-color:#E25694;stop-opacity:0.9122"/>
		<stop  offset="0.5615" style="stop-color:#9E005D;stop-opacity:0.7"/>
		<stop  offset="0.785" style="stop-color:#7F1979;stop-opacity:0.802"/>
		<stop  offset="1" style="stop-color:#662D91;stop-opacity:0.9"/>
	</linearGradient>
	<path class="st34" d="M-513.28,1627.63h43.1c0,0,5.07,3.8,4.44,5.7s0,110.29,0,110.29s-0.63,2.54-4.44,3.8c-3.8,1.27-43.1,0-43.1,0
		s-5.07-0.63-5.07-6.97c0-6.34,0-107.76,0-107.76S-515.81,1627.63-513.28,1627.63z"/>
	<linearGradient id="SVGID_30_" gradientUnits="userSpaceOnUse" x1="-517.6461" y1="1656.4401" x2="-467.0064" y2="1656.4401">
		<stop  offset="0" style="stop-color:#CCCCCC"/>
		<stop  offset="0.2039" style="stop-color:#CDCDCD"/>
		<stop  offset="0.2826" style="stop-color:#D6D6D6"/>
		<stop  offset="0.4773" style="stop-color:#E6E6E6"/>
		<stop  offset="0.6983" style="stop-color:#EFEFEF"/>
		<stop  offset="1" style="stop-color:#F2F2F2"/>
	</linearGradient>
	<path class="st35" d="M-509.35,1627.63h31.72c0,0,1.75,0,2.38,1.27c0.63,1.27-0.63,1.9-0.63,1.9h-32.96
		C-511.38,1630.17-509.35,1627.63-509.35,1627.63z M-497.43,1646.65h10.14c0,0,1.27-1.27,0-3.17h-10.14
		C-497.43,1643.48-499.97,1644.75-497.43,1646.65z M-494.26,1651.72v32.96c1.27,1.27,3.17,0,3.17,0v-32.96
		C-492.36,1649.19-494.26,1651.72-494.26,1651.72z M-501.24,1651.72v32.96c1.27,1.27,3.17,0,3.17,0v-18.09v-14.87
		C-499.33,1649.19-501.24,1651.72-501.24,1651.72z M-487.29,1651.09v32.96c1.27,1.27,3.17,0,3.17,0v-18.09v-14.87
		C-485.39,1648.55-487.29,1651.09-487.29,1651.09z M-480.95,1659.33v21.55c0,0,1.27,3.8,3.17,0v-21.55
		C-477.78,1659.33-479.05,1656.79-480.95,1659.33z M-507.57,1659.33v21.55c0,0,1.27,3.8,3.17,0v-21.55
		C-504.41,1659.33-505.67,1656.79-507.57,1659.33z M-511.38,1638.41h38.03c0,0,3.17,1.9,3.17,5.7c0,0,0.63,3.17-1.9,6.97
		c0,0-0.63,1.27-6.34,0.63c0,0-3.8-3.8-2.54-7.61c0,0-1.9-3.17-3.17,0c-0.75,0.46-0.13,6.8,2.54,8.87c0,0,2.54,3.17,5.7,3.17
		s6.97-3.8,6.97-3.8s1.9-3.8,1.9-8.87c0,0,0-5.07-3.8-8.24c0,0-1.27-1.27-2.54-1.27c-1.27,0-38.03,0-38.03,0s-6.34,1.9-5.7,7.61
		c0,0-1.27,5.07,0,9.51c0,0,1.9,4.44,5.7,5.07c3.8,0.63,6.34-1.9,6.34-1.9s3.17-1.9,3.8-5.7v-4.44c0,0-1.27-1.9-2.54,0
		c0,0-0.63,2.54-1.27,5.07c0,0,0,2.54-3.8,2.54s-5.7-1.9-5.7-1.9s-2.66-5.55,0-8.87C-512.01,1637.78-511.38,1638.41-511.38,1638.41z
		"/>
	<path class="st10" d="M434,2051h68c0,0,8,6,7,9s0,174,0,174s-1,4-7,6s-68,0-68,0s-8-1-8-11s0-170,0-170S430,2051,434,2051z"/>
	<path class="st0" d="M440.2,2051h50.04c0,0,2.76,0,3.76,2s-1,3-1,3h-52C437,2055,440.2,2051,440.2,2051z M459,2081h16c0,0,2-2,0-5
		h-16C459,2076,455,2078,459,2081z M464,2089v52c2,2,5,0,5,0v-52C467,2085,464,2089,464,2089z M453,2089v52c2,2,5,0,5,0v-28.54V2089
		C456,2085,453,2089,453,2089z M475,2088v52c2,2,5,0,5,0v-28.54V2088C478,2084,475,2088,475,2088z M485,2101v34c0,0,2,6,5,0v-34
		C490,2101,488,2097,485,2101z M443,2101v34c0,0,2,6,5,0v-34C448,2101,446,2097,443,2101z M437,2068h60c0,0,5,3,5,9c0,0,1,5-3,11
		c0,0-1,2-10,1c0,0-6-6-4-12c0,0-3-5-5,0c-1.18,0.72-0.2,10.73,4,14c0,0,4,5,9,5s11-6,11-6s3-6,3-14c0,0,0-8-6-13c0,0-2-2-4-2
		s-60,0-60,0s-10,3-9,12c0,0-2,8,0,15c0,0,3,7,9,8s10-3,10-3s5-3,6-9v-7c0,0-2-3-4,0c0,0-1,4-2,8c0,0,0,4-6,4s-9-3-9-3
		s-4.19-8.76,0-14C436,2067,437,2068,437,2068z"/>
	<path class="st10" d="M568.8,2600.31h42.82c0,0,5.04,3.78,4.41,5.67c-0.63,1.89,0,109.57,0,109.57s-0.63,2.52-4.41,3.78
		c-3.78,1.26-42.82,0-42.82,0s-5.04-0.63-5.04-6.93s0-107.06,0-107.06S566.28,2600.31,568.8,2600.31z"/>
	<path class="st0" d="M572.71,2600.31h31.51c0,0,1.74,0,2.37,1.26c0.63,1.26-0.63,1.89-0.63,1.89h-32.75
		C570.69,2602.83,572.71,2600.31,572.71,2600.31z M584.55,2619.2h10.08c0,0,1.26-1.26,0-3.15h-10.08
		C584.55,2616.05,582.03,2617.31,584.55,2619.2z M587.69,2624.24v32.75c1.26,1.26,3.15,0,3.15,0v-32.75
		C589.58,2621.72,587.69,2624.24,587.69,2624.24z M580.77,2624.24v32.75c1.26,1.26,3.15,0,3.15,0v-17.97v-14.77
		C582.66,2621.72,580.77,2624.24,580.77,2624.24z M594.62,2623.61v32.75c1.26,1.26,3.15,0,3.15,0v-17.97v-14.77
		C596.51,2621.09,594.62,2623.61,594.62,2623.61z M600.92,2631.8v21.41c0,0,1.26,3.78,3.15,0v-21.41
		C604.07,2631.8,602.81,2629.28,600.92,2631.8z M574.47,2631.8v21.41c0,0,1.26,3.78,3.15,0v-21.41
		C577.62,2631.8,576.36,2629.28,574.47,2631.8z M570.69,2611.01h37.78c0,0,3.15,1.89,3.15,5.67c0,0,0.63,3.15-1.89,6.93
		c0,0-0.63,1.26-6.3,0.63c0,0-3.78-3.78-2.52-7.56c0,0-1.89-3.15-3.15,0c-0.74,0.45-0.12,6.76,2.52,8.82c0,0,2.52,3.15,5.67,3.15
		s6.93-3.78,6.93-3.78s1.89-3.78,1.89-8.82c0,0,0-5.04-3.78-8.19c0,0-1.26-1.26-2.52-1.26c-1.26,0-37.78,0-37.78,0
		s-6.3,1.89-5.67,7.56c0,0-1.26,5.04,0,9.45c0,0,1.89,4.41,5.67,5.04c3.78,0.63,6.3-1.89,6.3-1.89s3.15-1.89,3.78-5.67v-4.41
		c0,0-1.26-1.89-2.52,0c0,0-0.63,2.52-1.26,5.04c0,0,0,2.52-3.78,2.52c-3.78,0-5.67-1.89-5.67-1.89s-2.64-5.52,0-8.82
		C570.06,2610.38,570.69,2611.01,570.69,2611.01z"/>
	<path class="st10" d="M580,2298h68c0,0,8,6,7,9s0,174,0,174s-1,4-7,6s-68,0-68,0s-8-1-8-11s0-170,0-170S576,2298,580,2298z"/>
	<path class="st0" d="M586.2,2298h50.04c0,0,2.76,0,3.76,2s-1,3-1,3h-52C583,2302,586.2,2298,586.2,2298z M605,2328h16c0,0,2-2,0-5
		h-16C605,2323,601,2325,605,2328z M610,2336v52c2,2,5,0,5,0v-52C613,2332,610,2336,610,2336z M599,2336v52c2,2,5,0,5,0v-28.54V2336
		C602,2332,599,2336,599,2336z M621,2335v52c2,2,5,0,5,0v-28.54V2335C624,2331,621,2335,621,2335z M631,2348v34c0,0,2,6,5,0v-34
		C636,2348,634,2344,631,2348z M589,2348v34c0,0,2,6,5,0v-34C594,2348,592,2344,589,2348z M583,2315h60c0,0,5,3,5,9c0,0,1,5-3,11
		c0,0-1,2-10,1c0,0-6-6-4-12c0,0-3-5-5,0c-1.18,0.72-0.2,10.73,4,14c0,0,4,5,9,5s11-6,11-6s3-6,3-14c0,0,0-8-6-13c0,0-2-2-4-2
		s-60,0-60,0s-10,3-9,12c0,0-2,8,0,15c0,0,3,7,9,8s10-3,10-3s5-3,6-9v-7c0,0-2-3-4,0c0,0-1,4-2,8c0,0,0,4-6,4s-9-3-9-3
		s-4.19-8.76,0-14C582,2314,583,2315,583,2315z"/>
	<path class="st11" d="M-534,2344h68c0,0,8,6,7,9s0,174,0,174s-1,4-7,6s-68,0-68,0s-8-1-8-11s0-170,0-170S-538,2344-534,2344z"/>
	<path class="st0" d="M-527.8,2344h50.04c0,0,2.76,0,3.76,2s-1,3-1,3h-52C-531,2348-527.8,2344-527.8,2344z M-509,2374h16
		c0,0,2-2,0-5h-16C-509,2369-513,2371-509,2374z M-504,2382v52c2,2,5,0,5,0v-52C-501,2378-504,2382-504,2382z M-515,2382v52
		c2,2,5,0,5,0v-28.54V2382C-512,2378-515,2382-515,2382z M-493,2381v52c2,2,5,0,5,0v-28.54V2381C-490,2377-493,2381-493,2381z
		 M-483,2394v34c0,0,2,6,5,0v-34C-478,2394-480,2390-483,2394z M-525,2394v34c0,0,2,6,5,0v-34C-520,2394-522,2390-525,2394z
		 M-531,2361h60c0,0,5,3,5,9c0,0,1,5-3,11c0,0-1,2-10,1c0,0-6-6-4-12c0,0-3-5-5,0c-1.18,0.72-0.2,10.73,4,14c0,0,4,5,9,5s11-6,11-6
		s3-6,3-14c0,0,0-8-6-13c0,0-2-2-4-2s-60,0-60,0s-10,3-9,12c0,0-2,8,0,15c0,0,3,7,9,8s10-3,10-3s5-3,6-9v-7c0,0-2-3-4,0c0,0-1,4-2,8
		c0,0,0,4-6,4s-9-3-9-3s-4.19-8.76,0-14C-532,2360-531,2361-531,2361z"/>
	<path class="st11" d="M-742,2052h68c0,0,8,6,7,9s0,174,0,174s-1,4-7,6s-68,0-68,0s-8-1-8-11s0-170,0-170S-746,2052-742,2052z"/>
	<path class="st0" d="M-735.8,2052h50.04c0,0,2.76,0,3.76,2s-1,3-1,3h-52C-739,2056-735.8,2052-735.8,2052z M-717,2082h16
		c0,0,2-2,0-5h-16C-717,2077-721,2079-717,2082z M-712,2090v52c2,2,5,0,5,0v-52C-709,2086-712,2090-712,2090z M-723,2090v52
		c2,2,5,0,5,0v-28.54V2090C-720,2086-723,2090-723,2090z M-701,2089v52c2,2,5,0,5,0v-28.54V2089C-698,2085-701,2089-701,2089z
		 M-691,2102v34c0,0,2,6,5,0v-34C-686,2102-688,2098-691,2102z M-733,2102v34c0,0,2,6,5,0v-34C-728,2102-730,2098-733,2102z
		 M-739,2069h60c0,0,5,3,5,9c0,0,1,5-3,11c0,0-1,2-10,1c0,0-6-6-4-12c0,0-3-5-5,0c-1.18,0.72-0.2,10.73,4,14c0,0,4,5,9,5s11-6,11-6
		s3-6,3-14c0,0,0-8-6-13c0,0-2-2-4-2s-60,0-60,0s-10,3-9,12c0,0-2,8,0,15c0,0,3,7,9,8s10-3,10-3s5-3,6-9v-7c0,0-2-3-4,0c0,0-1,4-2,8
		c0,0,0,4-6,4s-9-3-9-3s-4.19-8.76,0-14C-740,2068-739,2069-739,2069z"/>
	<g class="st12">
		<linearGradient id="SVGID_31_" gradientUnits="userSpaceOnUse" x1="488" y1="1185.9445" x2="571.0865" y2="1185.9445">
			<stop  offset="0" style="stop-color:#1C6075"/>
			<stop  offset="1" style="stop-color:#4D4D4D"/>
		</linearGradient>
		<path class="st36" d="M496,1091h68c0,0,8,6,7,9s0,174,0,174s-1,4-7,6s-68,0-68,0s-8-1-8-11s0-170,0-170S492,1091,496,1091z"/>
	</g>
	<path class="st0" d="M502.2,1091h50.04c0,0,2.76,0,3.76,2s-1,3-1,3h-52C499,1095,502.2,1091,502.2,1091z M521,1121h16c0,0,2-2,0-5
		h-16C521,1116,517,1118,521,1121z M526,1129v52c2,2,5,0,5,0v-52C529,1125,526,1129,526,1129z M515,1129v52c2,2,5,0,5,0v-28.54V1129
		C518,1125,515,1129,515,1129z M537,1128v52c2,2,5,0,5,0v-28.54V1128C540,1124,537,1128,537,1128z M547,1141v34c0,0,2,6,5,0v-34
		C552,1141,550,1137,547,1141z M505,1141v34c0,0,2,6,5,0v-34C510,1141,508,1137,505,1141z M499,1108h60c0,0,5,3,5,9c0,0,1,5-3,11
		c0,0-1,2-10,1c0,0-6-6-4-12c0,0-3-5-5,0c-1.18,0.72-0.2,10.73,4,14c0,0,4,5,9,5s11-6,11-6s3-6,3-14c0,0,0-8-6-13c0,0-2-2-4-2
		s-60,0-60,0s-10,3-9,12c0,0-2,8,0,15c0,0,3,7,9,8s10-3,10-3s5-3,6-9v-7c0,0-2-3-4,0c0,0-1,4-2,8c0,0,0,4-6,4s-9-3-9-3
		s-4.19-8.76,0-14C498,1107,499,1108,499,1108z"/>
	<g class="st12">
		<linearGradient id="SVGID_32_" gradientUnits="userSpaceOnUse" x1="631" y1="1476.9445" x2="714.0865" y2="1476.9445">
			<stop  offset="0" style="stop-color:#1C6075"/>
			<stop  offset="1" style="stop-color:#4D4D4D"/>
		</linearGradient>
		<path class="st37" d="M639,1382h68c0,0,8,6,7,9s0,174,0,174s-1,4-7,6s-68,0-68,0s-8-1-8-11s0-170,0-170S635,1382,639,1382z"/>
	</g>
	<path class="st0" d="M645.2,1382h50.04c0,0,2.76,0,3.76,2s-1,3-1,3h-52C642,1386,645.2,1382,645.2,1382z M664,1412h16c0,0,2-2,0-5
		h-16C664,1407,660,1409,664,1412z M669,1420v52c2,2,5,0,5,0v-52C672,1416,669,1420,669,1420z M658,1420v52c2,2,5,0,5,0v-28.54V1420
		C661,1416,658,1420,658,1420z M680,1419v52c2,2,5,0,5,0v-28.54V1419C683,1415,680,1419,680,1419z M690,1432v34c0,0,2,6,5,0v-34
		C695,1432,693,1428,690,1432z M648,1432v34c0,0,2,6,5,0v-34C653,1432,651,1428,648,1432z M642,1399h60c0,0,5,3,5,9c0,0,1,5-3,11
		c0,0-1,2-10,1c0,0-6-6-4-12c0,0-3-5-5,0c-1.18,0.72-0.2,10.73,4,14c0,0,4,5,9,5s11-6,11-6s3-6,3-14c0,0,0-8-6-13c0,0-2-2-4-2
		s-60,0-60,0s-10,3-9,12c0,0-2,8,0,15c0,0,3,7,9,8s10-3,10-3s5-3,6-9v-7c0,0-2-3-4,0c0,0-1,4-2,8c0,0,0,4-6,4s-9-3-9-3
		s-4.19-8.76,0-14C641,1398,642,1399,642,1399z"/>
	<g class="st12">
		<linearGradient id="SVGID_33_" gradientUnits="userSpaceOnUse" x1="605.7163" y1="1756.3967" x2="646.7612" y2="1756.3967">
			<stop  offset="0" style="stop-color:#1C6075"/>
			<stop  offset="1" style="stop-color:#4D4D4D"/>
		</linearGradient>
		<path class="st38" d="M609.67,1709.49h33.59c0,0,3.95,2.96,3.46,4.45c-0.49,1.48,0,85.96,0,85.96s-0.49,1.98-3.46,2.96
			c-2.96,0.99-33.59,0-33.59,0s-3.95-0.49-3.95-5.43s0-83.98,0-83.98S607.69,1709.49,609.67,1709.49z"/>
	</g>
	<path class="st0" d="M612.73,1708.49h24.72c0,0,1.36,0,1.86,0.99c0.49,0.99-0.49,1.48-0.49,1.48h-25.69
		C611.15,1710.47,612.73,1708.49,612.73,1708.49z M622.02,1723.31h7.9c0,0,0.99-0.99,0-2.47h-7.9
		C622.02,1720.84,620.04,1721.83,622.02,1723.31z M624.49,1727.27v25.69c0.99,0.99,2.47,0,2.47,0v-25.69
		C625.97,1725.29,624.49,1727.27,624.49,1727.27z M619.05,1727.27v25.69c0.99,0.99,2.47,0,2.47,0v-14.1v-11.59
		C620.54,1725.29,619.05,1727.27,619.05,1727.27z M629.92,1726.77v25.69c0.99,0.99,2.47,0,2.47,0v-14.1v-11.59
		C631.4,1724.8,629.92,1726.77,629.92,1726.77z M634.86,1733.19v16.8c0,0,0.99,2.96,2.47,0v-16.8
		C637.33,1733.19,636.34,1731.22,634.86,1733.19z M614.11,1733.19v16.8c0,0,0.99,2.96,2.47,0v-16.8
		C616.58,1733.19,615.6,1731.22,614.11,1733.19z M611.15,1716.89h29.64c0,0,2.47,1.48,2.47,4.45c0,0,0.49,2.47-1.48,5.43
		c0,0-0.49,0.99-4.94,0.49c0,0-2.96-2.96-1.98-5.93c0,0-1.48-2.47-2.47,0c-0.58,0.35-0.1,5.3,1.98,6.92c0,0,1.98,2.47,4.45,2.47
		c2.47,0,5.43-2.96,5.43-2.96s1.48-2.96,1.48-6.92c0,0,0-3.95-2.96-6.42c0,0-0.99-0.99-1.98-0.99c-0.99,0-29.64,0-29.64,0
		s-4.94,1.48-4.45,5.93c0,0-0.99,3.95,0,7.41c0,0,1.48,3.46,4.45,3.95c2.96,0.49,4.94-1.48,4.94-1.48s2.47-1.48,2.96-4.45v-3.46
		c0,0-0.99-1.48-1.98,0c0,0-0.49,1.98-0.99,3.95c0,0,0,1.98-2.96,1.98c-2.96,0-4.45-1.48-4.45-1.48s-2.07-4.33,0-6.92
		C610.66,1716.4,611.15,1716.89,611.15,1716.89z"/>
	<path class="st11" d="M-552.02,2636.64h43.49c0,0,5.12,3.84,4.48,5.76c-0.64,1.92,0,111.28,0,111.28s-0.64,2.56-4.48,3.84
		c-3.84,1.28-43.49,0-43.49,0s-5.12-0.64-5.12-7.03c0-6.4,0-108.72,0-108.72S-554.58,2636.64-552.02,2636.64z"/>
	<path class="st0" d="M-548.06,2636.64h32c0,0,1.77,0,2.4,1.28s-0.64,1.92-0.64,1.92h-33.26
		C-550.1,2639.2-548.06,2636.64-548.06,2636.64z M-536.03,2655.83h10.23c0,0,1.28-1.28,0-3.2h-10.23
		C-536.03,2652.63-538.59,2653.91-536.03,2655.83z M-532.83,2660.94v33.26c1.28,1.28,3.2,0,3.2,0v-33.26
		C-530.92,2658.38-532.83,2660.94-532.83,2660.94z M-539.87,2660.94v33.26c1.28,1.28,3.2,0,3.2,0v-18.25v-15
		C-537.95,2658.38-539.87,2660.94-539.87,2660.94z M-525.8,2660.3v33.26c1.28,1.28,3.2,0,3.2,0v-18.25v-15
		C-523.88,2657.74-525.8,2660.3-525.8,2660.3z M-519.4,2668.62v21.74c0,0,1.28,3.84,3.2,0v-21.74
		C-516.21,2668.62-517.49,2666.06-519.4,2668.62z M-546.27,2668.62v21.74c0,0,1.28,3.84,3.2,0v-21.74
		C-543.07,2668.62-544.35,2666.06-546.27,2668.62z M-550.1,2647.51h38.37c0,0,3.2,1.92,3.2,5.76c0,0,0.64,3.2-1.92,7.04
		c0,0-0.64,1.28-6.4,0.64c0,0-3.84-3.84-2.56-7.67c0,0-1.92-3.2-3.2,0c-0.75,0.46-0.13,6.86,2.56,8.95c0,0,2.56,3.2,5.76,3.2
		c3.2,0,7.03-3.84,7.03-3.84s1.92-3.84,1.92-8.95c0,0,0-5.12-3.84-8.31c0,0-1.28-1.28-2.56-1.28c-1.28,0-38.37,0-38.37,0
		s-6.4,1.92-5.76,7.67c0,0-1.28,5.12,0,9.59c0,0,1.92,4.48,5.76,5.12c3.84,0.64,6.4-1.92,6.4-1.92s3.2-1.92,3.84-5.76v-4.48
		c0,0-1.28-1.92-2.56,0c0,0-0.64,2.56-1.28,5.12c0,0,0,2.56-3.84,2.56c-3.84,0-5.76-1.92-5.76-1.92s-2.68-5.6,0-8.95
		C-550.74,2646.87-550.1,2647.51-550.1,2647.51z"/>
</g>
<g id="texto_y_detalles">
	<line class="st39" x1="-575" y1="1101" x2="-574" y2="1288"/>
	<text transform="matrix(1 0 0 1 -563.3574 1156.7656)"><tspan x="0" y="0" class="st24 st42" style="font-size:50px;">Malatesta,</tspan><tspan x="0" y="60" class="st24 st42" style="font-size:50px;">Roberti Kamuh &amp;</tspan><tspan x="0" y="120" class="st24 st42" style="font-size:50px;">Garramuo</tspan></text>
	<text transform="matrix(1 0 0 1 -862.4443 1277.5703)" class="st24 st42" style="font-size:52px;">M</text>
	<text transform="matrix(1 0 0 1 -766.4443 1277.5703)" class="st24 st42" style="font-size:52px;">RK</text>
	<text transform="matrix(1 0 0 1 -641.4443 1277.5703)" class="st24 st42" style="font-size:52px;">G</text>
	<line class="st40" x1="495.77" y1="406.61" x2="496.97" y2="631.85"/>
	<text transform="matrix(1 0 0 1 509.793 473.7813)"><tspan x="0" y="0" class="st41 st42 st43">Malatesta,</tspan><tspan x="0" y="72.27" class="st41 st42 st43">Roberti Kamuh &amp;</tspan><tspan x="0" y="144.54" class="st41 st42 st43">Garramuo</tspan></text>
	<text transform="matrix(1 0 0 1 149.5547 619.2861)" class="st24 st42 st44">M</text>
	<text transform="matrix(1 0 0 1 265.1826 619.2861)" class="st24 st42 st44">RK</text>
	<text transform="matrix(1 0 0 1 415.7402 619.2861)" class="st24 st42 st44">G</text>
	<text transform="matrix(1 0 0 1 -702.4443 1530.5703)" class="st24 st42" style="font-size:52px;">M</text>
	<text transform="matrix(1 0 0 1 -606.4443 1530.5703)" class="st24 st42" style="font-size:52px;">RK</text>
	<text transform="matrix(1 0 0 1 -481.4443 1530.5703)" class="st24 st42" style="font-size:52px;">G</text>
	<line class="st45" x1="519" y1="2053" x2="520" y2="2240"/>
	<line class="st46" x1="-657" y1="2057" x2="-656" y2="2244"/>
	<text transform="matrix(1 0 0 1 530.6426 2108.7656)"><tspan x="0" y="0" class="st24 st42" style="font-size:50px;">Malatesta,</tspan><tspan x="0" y="60" class="st24 st42" style="font-size:50px;">Roberti Kamuh &amp;</tspan><tspan x="0" y="120" class="st24 st42" style="font-size:50px;">Garramuo</tspan></text>
	<text transform="matrix(1 0 0 1 -645.3574 2108.7656)"><tspan x="0" y="0" class="st11 st42" style="font-size:50px;">Malatesta,</tspan><tspan x="0" y="60" class="st11 st42" style="font-size:50px;">Roberti Kamuh &amp;</tspan><tspan x="0" y="120" class="st11 st42" style="font-size:50px;">Garramuo</tspan></text>
	<text transform="matrix(1 0 0 1 231.5557 2229.5703)" class="st0 st42" style="font-size:52px;">M</text>
	<text transform="matrix(1 0 0 1 327.5557 2229.5703)" class="st0 st42" style="font-size:52px;">RK</text>
	<text transform="matrix(1 0 0 1 452.5557 2229.5703)" class="st0 st42" style="font-size:52px;">G</text>
	<text transform="matrix(1 0 0 1 377.5557 2476.5703)" class="st0 st42" style="font-size:52px;">M</text>
	<text transform="matrix(1 0 0 1 473.5557 2476.5703)" class="st0 st42" style="font-size:52px;">RK</text>
	<text transform="matrix(1 0 0 1 598.5557 2476.5703)" class="st0 st42" style="font-size:52px;">G</text>
	<text transform="matrix(1 0 0 1 -736.4443 2522.5703)" class="st24 st42" style="font-size:52px;">M</text>
	<text transform="matrix(1 0 0 1 -640.4443 2522.5703)" class="st24 st42" style="font-size:52px;">RK</text>
	<text transform="matrix(1 0 0 1 -515.4443 2522.5703)" class="st24 st42" style="font-size:52px;">G</text>
	<text transform="matrix(1 0 0 1 -944.4443 2230.5703)" class="st24 st42" style="font-size:52px;">M</text>
	<text transform="matrix(1 0 0 1 -848.4443 2230.5703)" class="st24 st42" style="font-size:52px;">RK</text>
	<text transform="matrix(1 0 0 1 -723.4443 2230.5703)" class="st24 st42" style="font-size:52px;">G</text>
	<line class="st46" x1="581" y1="1096" x2="582" y2="1283"/>
	<text transform="matrix(1 0 0 1 592.6426 1147.7656)"><tspan x="0" y="0" class="st11 st42" style="font-size:50px;">Malatesta,</tspan><tspan x="0" y="60" class="st11 st42" style="font-size:50px;">Roberti Kamuh &amp;</tspan><tspan x="0" y="120" class="st11 st42" style="font-size:50px;">Garramuo</tspan></text>
	<text transform="matrix(1 0 0 1 293.5557 1269.5703)" class="st24 st42" style="font-size:52px;">M</text>
	<text transform="matrix(1 0 0 1 389.5557 1269.5703)" class="st24 st42" style="font-size:52px;">RK</text>
	<text transform="matrix(1 0 0 1 514.5557 1269.5703)" class="st24 st42" style="font-size:52px;">G</text>
	<text transform="matrix(1 0 0 1 436.5557 1560.5703)" class="st24 st42" style="font-size:52px;">M</text>
	<text transform="matrix(1 0 0 1 532.5557 1560.5703)" class="st24 st42" style="font-size:52px;">RK</text>
	<text transform="matrix(1 0 0 1 657.5557 1560.5703)" class="st24 st42" style="font-size:52px;">G</text>
</g>
<g id="mini_logo">
	<path class="st0" d="M-625.8,2873h50.04c0,0,2.76,0,3.76,2s-1,3-1,3h-52C-629,2877-625.8,2873-625.8,2873z M-607,2903h16
		c0,0,2-2,0-5h-16C-607,2898-611,2900-607,2903z M-602,2911v52c2,2,5,0,5,0v-52C-599,2907-602,2911-602,2911z M-613,2911v52
		c2,2,5,0,5,0v-28.54V2911C-610,2907-613,2911-613,2911z M-591,2910v52c2,2,5,0,5,0v-28.54V2910C-588,2906-591,2910-591,2910z
		 M-581,2923v34c0,0,2,6,5,0v-34C-576,2923-578,2919-581,2923z M-623,2923v34c0,0,2,6,5,0v-34C-618,2923-620,2919-623,2923z
		 M-629,2890h60c0,0,5,3,5,9c0,0,1,5-3,11c0,0-1,2-10,1c0,0-6-6-4-12c0,0-3-5-5,0c-1.18,0.72-0.2,10.73,4,14c0,0,4,5,9,5s11-6,11-6
		s3-6,3-14c0,0,0-8-6-13c0,0-2-2-4-2s-60,0-60,0s-10,3-9,12c0,0-2,8,0,15c0,0,3,7,9,8s10-3,10-3s5-3,6-9v-7c0,0-2-3-4,0c0,0-1,4-2,8
		c0,0,0,4-6,4s-9-3-9-3s-4.19-8.76,0-14C-630,2889-629,2890-629,2890z"/>
	<path class="st47" d="M-574.35,2924.06"/>
</g>
</svg>
